<?xml version="1.0" encoding="utf-8"?>
<!-- Generator: Adobe Illustrator 26.0.2, SVG Export Plug-In . SVG Version: 6.00 Build 0)  -->
<svg version="1.1" id="Layer_1" xmlns="http://www.w3.org/2000/svg" xmlns:xlink="http://www.w3.org/1999/xlink" x="0px" y="0px"
	 viewBox="0 0 584 333.8" style="enable-background:new 0 0 584 333.8;" xml:space="preserve">
<style type="text/css">
	.st0{fill:none;stroke:#000000;stroke-linecap:round;stroke-linejoin:round;}
	.st1{fill:#231F20;}
	.st2{fill:#1D9CD3;}
	.st3{fill:#1DB14B;}
	.st4{fill:#2AA9E0;}
	.st5{fill:#999999;}
	.st6{fill:#FFFFFF;}
	.st7{fill:#786CCD;}
	.st8{fill:#C20025;}
</style>
<g id="ffa8c060-15e4-4155-9131-05020a5b76cf">
	<g id="bdb483cd-c590-4b45-a984-6b5504926566">
		<rect x="442.7" y="208" class="st0" width="140.8" height="70.2"/>
		<rect x="489.1" y="200.8" class="st1" width="47.9" height="18"/>
		<rect x="442.2" y="103.4" class="st0" width="140.8" height="70.2"/>
		<rect x="460.5" y="95.5" class="st1" width="103.2" height="18"/>
		<rect x="288.2" y="50.7" class="st2" width="1" height="22.6"/>
		<path d="M266.7,43.5c-0.1-1.8,1.4-3.4,3.2-3.4c0.1,0,0.1,0,0.2,0c1,0,2,0.5,2.6,1.3l-0.7,0.4c-0.4-0.6-1.1-1-1.9-1
			c-1.5,0.1-2.6,1.4-2.5,2.9c0.1,1.4,1.2,2.4,2.5,2.5c0.7,0,1.4-0.4,1.9-1l0.7,0.4c-0.6,0.8-1.5,1.3-2.6,1.3c-1.8,0-3.4-1.4-3.4-3.3
			C266.7,43.6,266.7,43.5,266.7,43.5z"/>
		<path d="M276.9,46.8v-0.7c-0.4,0.5-1.1,0.8-1.7,0.8c-0.7,0.1-1.4-0.4-1.5-1.1c0-0.1,0-0.3,0-0.4V42h0.7v3.2c0,0.8,0.4,1.1,1.1,1.1
			c0.6,0,1.1-0.3,1.4-0.7V42h0.8v4.8H276.9z"/>
		<path d="M279.2,45.6c0.4,0.4,1,0.7,1.6,0.7c0.7,0,1.1-0.3,1.1-0.8c0-0.5-0.6-0.7-1.2-0.9c-0.8-0.2-1.7-0.4-1.7-1.4
			c0-0.8,0.6-1.4,1.8-1.4c0.7,0,1.3,0.2,1.8,0.7l-0.3,0.5c-0.4-0.4-0.9-0.6-1.4-0.6c-0.7,0-1.1,0.3-1.1,0.7c0,0.5,0.5,0.6,1.2,0.8
			c0.8,0.2,1.8,0.4,1.8,1.5c0,0.8-0.6,1.5-1.9,1.5c-0.7,0-1.4-0.2-1.9-0.8L279.2,45.6z"/>
		<path d="M284,45.8v-3.2h-0.8V42h0.8v-1.3h0.8V42h1v0.7h-1v3c0,0.4,0.2,0.6,0.5,0.6c0.2,0,0.4-0.1,0.5-0.2l0.2,0.6
			c-0.2,0.2-0.6,0.3-0.9,0.3c-0.5,0.1-1-0.3-1.1-0.9C284,45.9,284,45.9,284,45.8z"/>
		<path d="M286.5,44.4c0.1-1.3,1.2-2.3,2.5-2.2c1.3,0.1,2.3,1.2,2.2,2.5c-0.1,1.3-1.1,2.2-2.4,2.2c-1.3,0-2.4-1-2.4-2.3
			C286.5,44.5,286.5,44.4,286.5,44.4z M290.5,44.4c-0.1-0.9-1-1.5-1.8-1.4c-0.9,0.1-1.5,1-1.4,1.8c0.1,0.8,0.8,1.4,1.6,1.4
			c0.9,0,1.6-0.8,1.6-1.7C290.5,44.5,290.5,44.4,290.5,44.4L290.5,44.4z"/>
		<path d="M298.3,46.8v-3.3c0-0.6-0.3-1-0.9-1c-0.5,0-1,0.3-1.3,0.7v3.5h-0.8v-3.3c0-0.6-0.3-1-0.9-1c-0.5,0-1,0.3-1.3,0.8v3.5h-0.7
			V42h0.7v0.7c0.4-0.5,0.9-0.8,1.6-0.8c0.6-0.1,1.1,0.3,1.3,0.9c0.4-0.5,1-0.9,1.6-0.9c0.9,0,1.3,0.5,1.3,1.5v3.5L298.3,46.8z"/>
		<path d="M302.7,41.8c1.3,0,2.3,1.1,2.3,2.4c0,0.1,0,0.2,0,0.2v0.2h-3.9c0,0.9,0.8,1.7,1.7,1.7c0,0,0,0,0,0c0.6,0,1.1-0.2,1.5-0.6
			l0.4,0.5c-0.5,0.5-1.2,0.8-1.9,0.7c-1.4,0-2.5-1.2-2.4-2.6C300.3,43,301.4,41.9,302.7,41.8L302.7,41.8z M301.1,44.1h3.2
			c0-0.9-0.7-1.6-1.5-1.6c0,0,0,0-0.1,0C301.8,42.5,301.1,43.2,301.1,44.1z"/>
		<path d="M306.2,46.8V42h0.7v0.8c0.4-0.5,1-0.9,1.6-0.9v0.8c-0.1,0-0.2,0-0.3,0c-0.5,0-1,0.3-1.3,0.8v3.4H306.2z"/>
		<g id="a7d5804f-bf37-42d9-996f-347411db56bc">
			<g id="b8068337-52e6-484e-83b6-fd099277d936">
				<path d="M272.4,32.2C272.4,32.2,272.4,32.2,272.4,32.2c0.3,0,0.4-0.1,0.4-0.3l2.5-10.9c0.3-0.9,0.9-1.8,1.7-2.3
					c2.2-1.2,4.5-2.1,7-2.5c2,1.6,4.8,1.6,6.9,0c2.4,0.4,4.8,1.3,7,2.5c0.8,0.5,1.5,1.3,1.7,2.2l2.5,10.9c0,0.2,0.2,0.3,0.4,0.3
					c0,0,0.1,0,0.1,0c0.2,0,0.3-0.2,0.3-0.4l-2.5-10.9c-0.3-1.1-1.1-2.1-2.1-2.7c-2.1-1.2-4.3-2-6.6-2.5c2.2-2.1,3.3-5.1,3.2-8.1
					c0-4.8-2.7-7.6-7.4-7.6S280,2.8,280,7.6c-0.1,3,1.1,6,3.2,8.1c-2.3,0.5-4.5,1.3-6.6,2.5c-1,0.6-1.7,1.6-2.1,2.7l-2.5,10.9
					C272.1,32,272.2,32.2,272.4,32.2C272.4,32.2,272.4,32.2,272.4,32.2z M280.8,7.6c0-5.9,4.2-6.8,6.7-6.8s6.7,0.9,6.7,6.8
					c0,3.4-1.4,6.4-3.5,8l0,0c-1.8,1.5-4.4,1.5-6.3,0l0,0C282.1,14,280.8,10.9,280.8,7.6z"/>
			</g>
		</g>
		<path class="st3" d="M442.2,245.1L442.2,245.1l-91.3-0.2v-48.9l-31.5,0c-0.3,0-0.5-0.2-0.5-0.5s0.2-0.5,0.5-0.5l32.5,0v48.9
			l90.3,0.2c0.3,0,0.5,0.2,0.5,0.5S442.4,245.1,442.2,245.1L442.2,245.1z"/>
		<path d="M394.4,148.9V143h-2.1v-0.7h5.1v0.7h-2.1v5.9H394.4z"/>
		<path d="M400.8,148.9v-0.7c-0.4,0.5-1.1,0.8-1.7,0.8c-0.7,0.1-1.4-0.4-1.5-1.1c0-0.1,0-0.3,0-0.4v-3.4h0.7v3.2
			c0,0.9,0.4,1.1,1.1,1.1c0.6,0,1.1-0.3,1.4-0.7v-3.5h0.8v4.8L400.8,148.9z"/>
		<path d="M406.3,148.9v-3.2c0-0.8-0.4-1.1-1.1-1.1c-0.6,0-1.1,0.3-1.4,0.8v3.5h-0.8v-4.8h0.8v0.7c0.4-0.5,1.1-0.8,1.7-0.8
			c0.8-0.1,1.4,0.4,1.5,1.2c0,0.1,0,0.3,0,0.4v3.4L406.3,148.9z"/>
		<path d="M411.8,148.9v-3.2c0-0.8-0.4-1.1-1.1-1.1c-0.6,0-1.1,0.3-1.4,0.8v3.5h-0.7v-4.8h0.7v0.7c0.4-0.5,1.1-0.8,1.7-0.8
			c0.8-0.1,1.4,0.4,1.5,1.2c0,0.1,0,0.3,0,0.4v3.4L411.8,148.9z"/>
		<path d="M416.2,144c1.3,0,2.3,1.1,2.3,2.4c0,0.1,0,0.2,0,0.2v0.2h-3.9c0,0.9,0.8,1.7,1.7,1.7c0,0,0,0,0,0c0.6,0,1.1-0.2,1.5-0.6
			l0.4,0.5c-0.5,0.5-1.2,0.8-1.9,0.7c-1.4,0-2.5-1.2-2.5-2.6C413.8,145.1,414.9,144.1,416.2,144L416.2,144z M414.6,146.2h3.2
			c0-0.9-0.7-1.6-1.5-1.6c0,0,0,0-0.1,0C415.3,144.6,414.6,145.4,414.6,146.2z"/>
		<path d="M419.7,148.9v-6.7h0.7v6.7H419.7z"/>
		<path d="M383.9,162.9c-1.9-2.6-1.9-6.2,0-8.8l0.5,0.3c-1.4,2.5-1.4,5.6,0,8.1L383.9,162.9z"/>
		<path d="M385.3,160.9v-6.7h0.8v6.7H385.3z"/>
		<path d="M387.7,160.9v-6.7h2.7c1.1,0,2,0.8,2.1,1.9c0,1.1-0.8,2-1.9,2.1c-0.1,0-0.1,0-0.2,0h-1.8v2.6H387.7z M390.3,155h-1.7v2.5
			h1.7c0.7,0,1.3-0.5,1.3-1.2s-0.5-1.3-1.2-1.3C390.4,155,390.3,155,390.3,155z"/>
		<path d="M393.7,159.4c0.5,0.6,1.3,0.9,2.1,0.9c1.2,0,1.6-0.6,1.6-1.1c0-0.8-0.8-1-1.7-1.3c-1.1-0.3-2.3-0.6-2.3-1.9
			c0-1.1,1-1.9,2.3-1.9c0.9,0,1.7,0.3,2.4,0.9l-0.5,0.6c-0.5-0.5-1.2-0.8-1.9-0.8c-0.8,0-1.4,0.4-1.4,1.1c0,0.7,0.8,0.9,1.6,1.1
			c1.1,0.3,2.3,0.6,2.3,2c0,1-0.7,2-2.5,2c-1,0-1.9-0.3-2.6-1.1L393.7,159.4z"/>
		<path d="M401.5,156c1.3,0,2.3,1.1,2.3,2.4c0,0.1,0,0.2,0,0.2v0.2h-3.9c0,0.9,0.8,1.7,1.7,1.7c0,0,0,0,0,0c0.6,0,1.1-0.2,1.5-0.6
			l0.4,0.5c-0.5,0.5-1.2,0.8-1.9,0.7c-1.4,0-2.5-1.2-2.5-2.6C399.2,157.1,400.2,156.1,401.5,156z M399.9,158.2h3.2
			c0-0.9-0.7-1.6-1.5-1.6c0,0,0,0-0.1,0C400.6,156.6,399.9,157.4,399.9,158.2L399.9,158.2z"/>
		<path d="M407.2,156c0.7,0,1.4,0.3,1.8,0.8l-0.5,0.5c-0.3-0.4-0.7-0.6-1.2-0.6c-1,0.1-1.8,1-1.7,2.1c0.1,0.9,0.8,1.6,1.7,1.7
			c0.5,0,1-0.2,1.2-0.6l0.5,0.5c-0.4,0.6-1.1,0.9-1.8,0.8c-1.4-0.1-2.5-1.3-2.4-2.7C404.8,157.1,405.9,156.1,407.2,156z"/>
		<path d="M412.7,159.4c0.5,0.6,1.3,0.9,2.1,0.9c1.2,0,1.6-0.6,1.6-1.1c0-0.8-0.8-1-1.7-1.3c-1.1-0.3-2.3-0.6-2.3-1.9
			c0-1.1,1-1.9,2.3-1.9c0.9,0,1.7,0.3,2.4,0.9l-0.5,0.6c-0.5-0.5-1.2-0.8-1.9-0.8c-0.8,0-1.4,0.4-1.4,1.1c0,0.7,0.8,0.9,1.6,1.1
			c1.1,0.3,2.3,0.6,2.3,2c0,1-0.7,2-2.5,2c-1,0-1.9-0.3-2.6-1.1L412.7,159.4z"/>
		<path d="M418.5,159.4c0.5,0.6,1.3,0.9,2.1,0.9c1.2,0,1.6-0.6,1.6-1.1c0-0.8-0.8-1-1.7-1.3c-1.1-0.3-2.3-0.6-2.3-1.9
			c0-1.1,1-1.9,2.3-1.9c0.9,0,1.7,0.3,2.4,0.9l-0.5,0.6c-0.5-0.5-1.2-0.8-1.9-0.8c-0.8,0-1.4,0.4-1.4,1.1c0,0.7,0.8,0.9,1.6,1.1
			c1.1,0.3,2.3,0.6,2.3,2c0,1-0.7,2-2.5,2c-1,0-1.9-0.3-2.6-1.1L418.5,159.4z"/>
		<path d="M424.3,160.9v-6.7h0.8v5.9h3.1v0.7H424.3z"/>
		<path d="M428.8,154.4l0.5-0.3c1.9,2.6,1.9,6.2,0,8.8l-0.5-0.4C430.2,160.1,430.2,157,428.8,154.4z"/>
		<path d="M398.1,257.5v-6.7h0.8v6.7H398.1z"/>
		<path d="M403.7,257.5v-3.2c0-0.9-0.4-1.1-1.1-1.1c-0.6,0-1.1,0.3-1.4,0.8v3.5h-0.7v-4.8h0.7v0.7c0.4-0.5,1.1-0.8,1.7-0.8
			c0.8-0.1,1.4,0.4,1.5,1.2c0,0.1,0,0.3,0,0.4v3.4L403.7,257.5z"/>
		<path d="M406.1,256.5v-3.2h-0.8v-0.7h0.8v-1.3h0.8v1.3h1v0.7h-1v3c0,0.4,0.2,0.6,0.5,0.6c0.2,0,0.4-0.1,0.5-0.2l0.2,0.6
			c-0.2,0.2-0.6,0.3-0.9,0.3c-0.5,0.1-1-0.3-1.1-0.9C406.1,256.6,406.1,256.6,406.1,256.5z"/>
		<path d="M411,252.5c1.3,0,2.3,1.1,2.3,2.4c0,0.1,0,0.2,0,0.2v0.2h-3.9c0,0.9,0.8,1.7,1.7,1.7c0,0,0,0,0,0c0.6,0,1.1-0.2,1.5-0.6
			l0.4,0.5c-0.5,0.5-1.2,0.8-1.9,0.7c-1.4,0-2.5-1.2-2.4-2.6C408.7,253.7,409.7,252.6,411,252.5L411,252.5z M409.4,254.8h3.2
			c0-0.9-0.7-1.6-1.5-1.6c0,0,0,0-0.1,0C410.1,253.2,409.4,253.9,409.4,254.8L409.4,254.8z"/>
		<path d="M414.6,257.5v-4.8h0.7v0.8c0.4-0.5,1-0.9,1.6-0.9v0.8c-0.1,0-0.2,0-0.3,0c-0.5,0-1,0.3-1.3,0.8v3.4L414.6,257.5z"/>
		<path d="M421.1,257.5v-3.2c0-0.9-0.4-1.1-1.1-1.1c-0.6,0-1.1,0.3-1.4,0.8v3.5h-0.7v-4.8h0.7v0.7c0.4-0.5,1.1-0.8,1.7-0.8
			c0.8-0.1,1.4,0.4,1.5,1.2c0,0.1,0,0.3,0,0.4v3.4L421.1,257.5z"/>
		<path d="M425.5,252.5c1.3,0,2.3,1.1,2.3,2.4c0,0.1,0,0.2,0,0.2v0.2h-3.9c0,0.9,0.8,1.7,1.7,1.7c0,0,0,0,0,0c0.6,0,1.1-0.2,1.5-0.6
			l0.4,0.5c-0.5,0.5-1.2,0.8-1.9,0.7c-1.4,0-2.5-1.2-2.4-2.6C423.1,253.7,424.2,252.6,425.5,252.5L425.5,252.5z M423.9,254.8h3.2
			c0-0.9-0.7-1.6-1.5-1.6c0,0,0,0-0.1,0C424.6,253.2,423.9,253.9,423.9,254.8z"/>
		<path d="M429.1,256.5v-3.2h-0.8v-0.7h0.8v-1.3h0.8v1.3h1v0.7h-1v3c0,0.4,0.2,0.6,0.5,0.6c0.2,0,0.4-0.1,0.5-0.2l0.2,0.6
			c-0.2,0.2-0.6,0.3-0.9,0.3c-0.5,0.1-1-0.3-1.1-0.9C429.1,256.6,429.1,256.6,429.1,256.5z"/>
		<path d="M242.8,295.7v-6.7h4.4v0.7h-3.5v2.1h3.5v0.7h-3.5v3L242.8,295.7z"/>
		<path d="M248.6,294.2c0.4,0.6,1.1,0.9,1.8,0.9c0.8,0.1,1.5-0.5,1.5-1.3c0,0,0-0.1,0-0.1c0-0.8-0.6-1.4-1.4-1.4c-0.1,0-0.1,0-0.2,0
			c-0.6,0-1.1,0.2-1.5,0.6l-0.6-0.2v-3.6h4.1v0.7h-3.2v2.3c0.4-0.4,1-0.6,1.6-0.6c1.1,0,2.1,0.8,2.1,2c0,0.1,0,0.1,0,0.2
			c0,1.2-1,2.2-2.2,2.2c-0.1,0-0.1,0-0.2,0c-0.9,0.1-1.8-0.3-2.4-1.1L248.6,294.2z"/>
		<path d="M259.9,288.9c1,0,2,0.4,2.6,1.2l-0.7,0.4c-0.5-0.6-1.2-0.9-1.9-0.9c-1.5,0.1-2.6,1.4-2.6,2.9c0.1,1.4,1.2,2.5,2.6,2.6
			c0.7,0,1.3-0.3,1.8-0.7V293h-2.3v-0.7h3.1v2.4c-0.7,0.7-1.6,1.2-2.6,1.1c-1.9,0-3.5-1.5-3.5-3.5S258,288.9,259.9,288.9
			L259.9,288.9L259.9,288.9z"/>
		<path d="M263.8,295.7v-6.7h0.7v6.7H263.8z"/>
		<path d="M265.8,293.3c0.1-1.3,1.2-2.3,2.5-2.2c1.3,0.1,2.3,1.2,2.2,2.5c-0.1,1.3-1.1,2.2-2.4,2.2c-1.3,0-2.4-1-2.4-2.3
			C265.8,293.4,265.8,293.4,265.8,293.3z M269.8,293.3c-0.1-0.9-1-1.5-1.9-1.4c-0.9,0.1-1.5,1-1.4,1.9c0.1,0.8,0.8,1.4,1.6,1.4
			c0.9,0,1.6-0.8,1.6-1.7C269.8,293.4,269.8,293.3,269.8,293.3z"/>
		<path d="M271.8,295.7v-6.7h0.7v2.6c0.4-0.5,1-0.8,1.6-0.9c1.2,0,2.2,1.1,2.2,2.3c0,0.1,0,0.1,0,0.2c0,1.6-0.9,2.5-2.1,2.5
			c-0.6,0-1.3-0.3-1.6-0.8v0.7H271.8z M272.5,294.4c0.3,0.5,0.9,0.8,1.4,0.8c1,0,1.6-0.8,1.6-1.9s-0.6-1.9-1.6-1.9
			c-0.6,0-1.1,0.3-1.4,0.8V294.4z"/>
		<path d="M280.6,295.7v-0.5c-0.4,0.4-1,0.7-1.6,0.7c-0.9,0-1.6-0.6-1.7-1.5c0,0,0-0.1,0-0.1c0-0.9,0.7-1.6,1.6-1.6c0,0,0.1,0,0.1,0
			c0.6,0,1.2,0.2,1.6,0.7v-0.9c0-0.6-0.5-1-1.2-1c-0.6,0-1.1,0.2-1.5,0.7l-0.4-0.5c0.5-0.5,1.2-0.8,1.9-0.8c1,0,1.9,0.5,1.9,1.6v3.3
			L280.6,295.7z M280.6,293.8c-0.3-0.4-0.8-0.6-1.3-0.6c-0.6-0.1-1.1,0.3-1.2,0.9c-0.1,0.6,0.3,1.1,0.9,1.2c0.1,0,0.2,0,0.3,0
			c0.5,0,1-0.2,1.3-0.6V293.8z"/>
		<path d="M282.8,295.7v-6.7h0.7v6.7H282.8z"/>
		<path d="M292.4,295.7l-3.9-5.4v5.4h-0.8v-6.7h0.8l3.8,5.3v-5.3h0.8v6.7H292.4z"/>
		<path d="M296.8,290.8c1.3,0,2.3,1.1,2.3,2.4c0,0.1,0,0.2,0,0.2v0.2h-3.9c0,0.9,0.8,1.7,1.7,1.7c0,0,0,0,0,0c0.6,0,1.1-0.2,1.5-0.6
			l0.4,0.5c-0.5,0.5-1.2,0.8-1.9,0.7c-1.4,0-2.5-1.2-2.4-2.6C294.5,291.9,295.5,290.9,296.8,290.8L296.8,290.8z M295.2,293h3.2
			c0-0.9-0.7-1.6-1.5-1.6c0,0,0,0-0.1,0C295.9,291.4,295.2,292.1,295.2,293z"/>
		<path d="M300.5,294.7v-3.2h-0.8v-0.7h0.8v-1.3h0.8v1.3h1v0.7h-1v3c0,0.4,0.2,0.6,0.5,0.6c0.2,0,0.4-0.1,0.5-0.2l0.2,0.6
			c-0.2,0.2-0.6,0.3-0.9,0.3c-0.5,0.1-1-0.3-1.1-0.9C300.5,294.9,300.5,294.8,300.5,294.7z"/>
		<path d="M307.5,295.7l-1.3-3.9l-1.3,3.9h-0.7l-1.5-4.8h0.8l1.2,3.8l1.3-3.8h0.6l1.3,3.8l1.2-3.8h0.8l-1.5,4.8H307.5z"/>
		<path d="M310.4,293.3c0.1-1.3,1.2-2.3,2.5-2.2c1.3,0.1,2.3,1.2,2.2,2.5c-0.1,1.3-1.1,2.2-2.4,2.2c-1.3,0-2.4-1-2.4-2.3
			C310.4,293.4,310.4,293.4,310.4,293.3z M314.3,293.3c-0.1-0.9-1-1.5-1.9-1.4c-0.9,0.1-1.5,1-1.4,1.9c0.1,0.8,0.8,1.4,1.6,1.4
			c0.9,0,1.6-0.8,1.6-1.7C314.4,293.4,314.4,293.3,314.3,293.3L314.3,293.3z"/>
		<path d="M316.4,295.7v-4.8h0.7v0.8c0.4-0.5,1-0.9,1.6-0.9v0.8c-0.1,0-0.2,0-0.3,0c-0.5,0-1,0.3-1.3,0.8v3.4H316.4z"/>
		<path d="M322.9,295.7l-1.7-2.2l-0.8,0.8v1.4h-0.7v-6.7h0.7v4.4l2.5-2.6h0.9l-2.1,2.2l2.1,2.6H322.9z"/>
		<path d="M272,309.7c-1.9-2.6-1.9-6.2,0-8.8l0.5,0.3c-1.4,2.5-1.4,5.6,0,8.1L272,309.7z"/>
		<path d="M278.2,307.7l-0.6-1.5h-3.4l-0.6,1.5h-0.9l2.7-6.7h1l2.7,6.7H278.2z M276,301.8l-1.4,3.7h2.9L276,301.8z"/>
		<path d="M280,307.7v-6.7h2.3c1.8,0,3.4,1.4,3.4,3.3s-1.4,3.4-3.3,3.4c-0.1,0-0.1,0-0.2,0H280z M280.9,307h1.4
			c1.4,0,2.6-1.2,2.6-2.6c0-1.4-1.2-2.6-2.6-2.6h-1.4V307z"/>
		<path d="M291.8,307.7l-3.9-5.4v5.4H287v-6.7h0.9l3.8,5.3v-5.3h0.8v6.7H291.8z"/>
		<path d="M293.5,301.2l0.5-0.3c1.9,2.6,1.9,6.2,0,8.8l-0.5-0.4C294.9,306.8,294.9,303.7,293.5,301.2z"/>
		<path d="M110.9,260.2l-1.5-5.4l-1.5,5.4h-0.9l-1.9-6.7h0.9l1.5,5.6l1.5-5.6h0.7l1.5,5.6l1.5-5.6h0.9l-1.9,6.7L110.9,260.2z"/>
		<path d="M116.3,255.2c1.3,0,2.3,1.1,2.3,2.4c0,0.1,0,0.2,0,0.2v0.2h-3.9c0,0.9,0.8,1.7,1.7,1.7c0,0,0,0,0,0c0.6,0,1.1-0.2,1.5-0.6
			l0.4,0.5c-0.5,0.5-1.2,0.8-1.9,0.7c-1.4,0-2.5-1.2-2.4-2.6C114,256.4,115,255.3,116.3,255.2L116.3,255.2z M114.7,257.4h3.2
			c0-0.9-0.7-1.6-1.5-1.6c0,0,0,0-0.1,0C115.4,255.8,114.7,256.6,114.7,257.4z"/>
		<path d="M119.8,260.2v-6.7h0.7v2.6c0.4-0.5,1-0.8,1.6-0.8c1.2,0,2.2,1.1,2.2,2.3c0,0.1,0,0.1,0,0.2c0,1.6-0.9,2.5-2.2,2.5
			c-0.6,0-1.2-0.3-1.6-0.8v0.7H119.8z M120.6,258.8c0.3,0.5,0.9,0.8,1.4,0.8c1,0,1.6-0.8,1.6-1.9s-0.6-1.9-1.6-1.9
			c-0.6,0-1.1,0.3-1.4,0.8V258.8z"/>
		<path d="M124.8,260.4l2.4-7.1h0.6l-2.4,7.1H124.8z"/>
		<path d="M133.4,260.2l-0.6-1.5h-3.4l-0.6,1.5h-0.9l2.7-6.7h1l2.7,6.7H133.4z M131.1,254.2l-1.4,3.7h2.9L131.1,254.2z"/>
		<path d="M135.2,260.2v-6.7h2.7c1.1,0,2,0.8,2.1,1.9c0,1.1-0.8,2-1.9,2.1c0,0-0.1,0-0.1,0H136v2.6H135.2z M137.7,254.2H136v2.5h1.7
			c0.7,0,1.3-0.5,1.3-1.2c0-0.7-0.5-1.3-1.2-1.3C137.8,254.2,137.8,254.2,137.7,254.2z"/>
		<path d="M141,260.2v-6.7h0.8v6.7H141z"/>
		<path d="M143.4,259c0.4,0.4,1,0.7,1.6,0.7c0.7,0,1.1-0.3,1.1-0.8c0-0.5-0.6-0.7-1.2-0.9c-0.8-0.2-1.7-0.4-1.7-1.4
			c0-0.7,0.6-1.4,1.8-1.4c0.7,0,1.3,0.2,1.8,0.7l-0.3,0.5c-0.4-0.4-0.9-0.6-1.4-0.6c-0.7,0-1.1,0.3-1.1,0.7c0,0.5,0.6,0.6,1.2,0.8
			c0.8,0.2,1.8,0.4,1.8,1.5c0,0.8-0.6,1.5-1.9,1.5c-0.7,0-1.4-0.2-1.9-0.8L143.4,259z"/>
		<path d="M114.1,190.8v-6.7h2.3c1.8,0,3.4,1.4,3.4,3.3c0,1.8-1.4,3.4-3.3,3.4c-0.1,0-0.1,0-0.2,0H114.1z M115,190.1h1.4
			c1.4,0,2.6-1.2,2.5-2.6c0-1.4-1.1-2.5-2.5-2.5H115V190.1z"/>
		<path d="M121.1,190.8v-6.7h2.3c1.8,0,3.4,1.4,3.4,3.3c0,1.8-1.4,3.4-3.3,3.4c-0.1,0-0.1,0-0.2,0H121.1z M122,190.1h1.4
			c1.4,0,2.6-1.2,2.5-2.6c0-1.4-1.1-2.5-2.5-2.5H122V190.1z"/>
		<path d="M127.8,188.4c0.1-1.3,1.2-2.3,2.5-2.2c1.3,0.1,2.3,1.2,2.2,2.5c-0.1,1.3-1.1,2.2-2.4,2.2c-1.3,0-2.4-1-2.4-2.3
			C127.8,188.5,127.8,188.5,127.8,188.4z M131.8,188.4c-0.1-0.9-1-1.5-1.8-1.4c-0.9,0.1-1.5,1-1.4,1.8c0.1,0.8,0.8,1.4,1.6,1.4
			c0.9,0,1.6-0.8,1.6-1.7C131.8,188.5,131.8,188.4,131.8,188.4z"/>
		<path d="M134,189.2c0.5,0.6,1.3,0.9,2.1,0.9c1.2,0,1.6-0.6,1.6-1.1c0-0.8-0.8-1-1.7-1.3c-1.1-0.3-2.3-0.6-2.3-1.9
			c0-1.1,1-1.8,2.3-1.8c0.9,0,1.7,0.3,2.4,0.9l-0.5,0.6c-0.5-0.5-1.2-0.8-1.9-0.8c-0.8,0-1.4,0.4-1.4,1.1c0,0.7,0.8,0.9,1.6,1.1
			c1.1,0.3,2.3,0.6,2.3,2c0,1-0.7,2-2.5,2c-1,0-1.9-0.3-2.6-1.1L134,189.2z"/>
		<path d="M107.5,146.9l-0.6-1.5h-3.4l-0.6,1.5h-0.9l2.7-6.7h1l2.7,6.7H107.5z M105.3,141l-1.4,3.7h2.9L105.3,141z"/>
		<path d="M110.1,148.8h-0.7v-6.7h0.7v0.7c0.4-0.5,1-0.8,1.6-0.8c1.3,0,2.1,1,2.1,2.5s-0.9,2.5-2.1,2.5c-0.6,0-1.3-0.3-1.6-0.8
			V148.8z M111.5,142.7c-0.6,0-1.1,0.3-1.4,0.8v2.2c0.3,0.5,0.9,0.8,1.4,0.8c1,0,1.5-0.8,1.5-1.9S112.5,142.7,111.5,142.7
			L111.5,142.7z"/>
		<path d="M115.8,148.8h-0.7v-6.7h0.7v0.7c0.4-0.5,1-0.8,1.6-0.8c1.3,0,2.2,1,2.2,2.5s-0.9,2.5-2.2,2.5c-0.6,0-1.3-0.3-1.6-0.8
			V148.8z M117.2,142.7c-0.6,0-1.1,0.3-1.4,0.8v2.2c0.3,0.5,0.9,0.8,1.4,0.8c1,0,1.5-0.8,1.5-1.9S118.2,142.7,117.2,142.7
			L117.2,142.7z"/>
		<path d="M128.2,146.9l-0.6-1.5h-3.4l-0.6,1.5h-0.9l2.7-6.7h1l2.7,6.7H128.2z M125.9,141l-1.4,3.7h2.9L125.9,141z"/>
		<path d="M130,145.9v-3.2h-0.8v-0.7h0.8v-1.3h0.8v1.3h1v0.7h-1v3c0,0.4,0.2,0.6,0.5,0.6c0.2,0,0.4-0.1,0.5-0.2l0.2,0.6
			c-0.2,0.2-0.6,0.3-0.9,0.3c-0.5,0.1-1-0.3-1.1-0.9C130,146.1,130,146,130,145.9z"/>
		<path d="M132.9,145.9v-3.2h-0.8v-0.7h0.8v-1.3h0.8v1.3h1v0.7h-1v3c0,0.4,0.2,0.6,0.5,0.6c0.2,0,0.4-0.1,0.5-0.2l0.2,0.6
			c-0.2,0.2-0.6,0.3-0.9,0.3c-0.5,0.1-1-0.3-1.1-0.9C132.9,146.1,132.9,146,132.9,145.9z"/>
		<path d="M138.7,146.9v-0.6c-0.4,0.4-1,0.7-1.6,0.7c-0.9,0-1.6-0.6-1.7-1.5c0,0,0-0.1,0-0.1c0-0.9,0.7-1.6,1.6-1.6c0,0,0.1,0,0.1,0
			c0.6,0,1.2,0.2,1.6,0.7v-0.9c0-0.6-0.5-1-1.2-1c-0.6,0-1.1,0.2-1.5,0.7l-0.4-0.5c0.5-0.5,1.2-0.8,1.9-0.8c1,0,1.9,0.5,1.9,1.6v3.3
			L138.7,146.9z M138.7,145c-0.3-0.4-0.8-0.6-1.3-0.6c-0.6-0.1-1.1,0.3-1.2,0.9s0.3,1.1,0.9,1.2c0.1,0,0.2,0,0.3,0
			c0.5,0,1-0.2,1.3-0.6V145z"/>
		<path d="M143.1,142c0.7,0,1.4,0.3,1.8,0.8l-0.5,0.5c-0.3-0.4-0.7-0.6-1.2-0.6c-1,0.1-1.8,1-1.7,2.1c0.1,0.9,0.8,1.6,1.7,1.7
			c0.5,0,1-0.2,1.2-0.6l0.5,0.5c-0.4,0.6-1.1,0.9-1.8,0.8c-1.4-0.1-2.5-1.3-2.4-2.7C140.8,143.1,141.8,142.1,143.1,142z"/>
		<path d="M149.2,146.9l-1.7-2.2l-0.8,0.8v1.4h-0.7v-6.7h0.7v4.4l2.5-2.6h0.9l-2.1,2.2l2.1,2.6H149.2z"/>
		<path class="st4" d="M581.8,83c-0.3,0-0.5-0.2-0.5-0.5v-3.2H1v3.2C1,82.8,0.8,83,0.5,83S0,82.8,0,82.5v-3.7c0-0.3,0.2-0.5,0.5-0.5
			h581.3c0.3,0,0.5,0.2,0.5,0.5v3.7C582.3,82.8,582,83,581.8,83z"/>
		<rect x="190.9" y="68.1" class="st5" width="197.7" height="18"/>
		<path class="st6" d="M203.6,75.6v3.1c0,1.1-0.9,2-2.1,2c-0.1,0-0.1,0-0.2,0H199v-7.1h2.3c1.1-0.1,2.1,0.7,2.3,1.8
			C203.5,75.4,203.6,75.5,203.6,75.6z M202,75.6c0-0.3-0.2-0.6-0.5-0.6c0,0-0.1,0-0.1,0h-0.9v4.3h0.8c0.3,0,0.6-0.2,0.6-0.5
			c0,0,0-0.1,0-0.1V75.6z"/>
		<path class="st6" d="M204.5,73.6h1.5v7.1h-1.5V73.6z"/>
		<path class="st6" d="M206.9,78.5v-0.3h1.5v0.4c0,0.4,0.3,0.7,0.7,0.7c0,0,0.1,0,0.1,0c0.4,0,0.7-0.3,0.7-0.6c0,0,0,0,0-0.1
			c0-1.3-3-1-3-3.3c-0.1-1.1,0.8-2,1.9-2.1c0.1,0,0.2,0,0.3,0c1.1-0.1,2,0.6,2.2,1.7c0,0.1,0,0.2,0,0.3v0.4h-1.5v-0.5
			c0-0.3-0.3-0.5-0.7-0.5c-0.3,0-0.6,0.2-0.6,0.5c0,0,0,0.1,0,0.1c0,1,3,0.8,3,3.2c0.1,1.2-0.8,2.1-2,2.2c-0.1,0-0.2,0-0.3,0
			c-1.2,0.1-2.2-0.8-2.3-1.9C206.9,78.8,206.9,78.7,206.9,78.5z"/>
		<path class="st6" d="M216.7,75h-1.5v5.7h-1.6V75h-1.5v-1.4h4.5V75z"/>
		<path class="st6" d="M219.7,78.1H219v2.6h-1.5v-7.1h2.4c1.1-0.1,2,0.7,2.1,1.8c0,0.1,0,0.1,0,0.2v0.7c0,0.6-0.3,1.1-0.7,1.5l0.9,3
			h-1.6L219.7,78.1z M219,76.7h0.9c0.2,0,0.5-0.2,0.5-0.4c0,0,0,0,0-0.1v-0.8c0-0.2-0.2-0.4-0.4-0.5c0,0,0,0-0.1,0H219L219,76.7z"/>
		<path class="st6" d="M223,73.6h1.5v7.1H223V73.6z"/>
		<path class="st6" d="M230,78.3v0.4c0,1.1-0.8,1.9-1.9,2c0,0-0.1,0-0.1,0h-2.4v-7.1h2.3c1-0.1,1.9,0.6,2,1.7c0,0,0,0.1,0,0.1v0.5
			c0,0.4-0.2,0.8-0.5,1.1C229.7,77.3,230,77.7,230,78.3z M227.1,74.9v1.5h0.8c0.2,0,0.4-0.2,0.4-0.5v-0.5c0-0.2-0.2-0.4-0.4-0.5
			L227.1,74.9z M228.4,78.2c0-0.3-0.2-0.5-0.4-0.5h-1v1.6h1c0.3,0,0.4-0.2,0.4-0.6V78.2z"/>
		<path class="st6" d="M230.8,78.8v-5.2h1.6v5.2c0,0.4,0.2,0.6,0.7,0.6s0.7-0.2,0.7-0.6v-5.2h1.5v5.2c-0.1,1.3-1.3,2.2-2.5,2
			C231.8,80.7,230.9,79.8,230.8,78.8z"/>
		<path class="st6" d="M240.6,75h-1.5v5.7h-1.6V75h-1.5v-1.4h4.5L240.6,75z"/>
		<path class="st6" d="M242.9,75v1.5h1.7v1.4h-1.7v1.3h2.1v1.4h-3.7v-7.1h3.7v1.4L242.9,75z"/>
		<path class="st6" d="M250.4,75.6v3.1c0,1.1-0.9,2-2.1,2c-0.1,0-0.1,0-0.2,0h-2.3v-7.1h2.3c1.1-0.1,2.1,0.7,2.3,1.8
			C250.4,75.4,250.4,75.5,250.4,75.6z M248.8,75.6c0-0.3-0.2-0.6-0.5-0.6c0,0-0.1,0-0.1,0h-0.9v4.3h0.8c0.3,0,0.6-0.2,0.6-0.5
			c0,0,0-0.1,0-0.1V75.6z"/>
		<path class="st6" d="M253.3,78.8v-3.4c0.2-1.3,1.4-2.2,2.7-2c1,0.2,1.8,1,2,2v0.9h-1.6v-0.9c0-0.4-0.3-0.6-0.8-0.6
			c-0.5,0-0.8,0.2-0.8,0.6v3.4c0,0.4,0.3,0.6,0.8,0.6c0.5,0,0.8-0.2,0.8-0.6v-0.9h1.6v0.9c-0.2,1.3-1.4,2.2-2.7,2
			C254.2,80.6,253.4,79.8,253.3,78.8L253.3,78.8z"/>
		<path class="st6" d="M262.6,79.2v1.4h-3.7v-7.1h1.5v5.7H262.6z"/>
		<path class="st6" d="M263.3,78.8v-3.4c0.2-1.3,1.4-2.2,2.7-2c1,0.2,1.8,1,2,2v3.4c-0.2,1.3-1.4,2.2-2.7,2
			C264.3,80.6,263.4,79.8,263.3,78.8z M266.5,78.8v-3.4c0-0.4-0.2-0.6-0.8-0.6c-0.6,0-0.8,0.2-0.8,0.6v3.4c0,0.4,0.2,0.6,0.8,0.6
			S266.5,79.2,266.5,78.8L266.5,78.8z"/>
		<path class="st6" d="M268.9,78.8v-5.2h1.5v5.2c0,0.4,0.2,0.6,0.7,0.6s0.7-0.2,0.7-0.6v-5.2h1.5v5.2c-0.2,1.3-1.3,2.2-2.5,2
			C269.8,80.7,269,79.8,268.9,78.8L268.9,78.8z"/>
		<path class="st6" d="M279,75.6v3.1c0,1.1-0.9,2-2.1,2c-0.1,0-0.1,0-0.2,0h-2.3v-7.1h2.3c1.1-0.1,2.1,0.7,2.3,1.8
			C278.9,75.4,279,75.5,279,75.6z M277.4,75.6c0-0.3-0.2-0.6-0.5-0.6c0,0-0.1,0-0.1,0h-0.8v4.3h0.8c0.3,0,0.6-0.2,0.6-0.5
			c0,0,0-0.1,0-0.1L277.4,75.6z"/>
		<path class="st6" d="M281.9,78.8v-3.4c0.2-1.3,1.4-2.2,2.7-2c1,0.2,1.8,1,2,2v0.9H285v-0.9c0-0.4-0.3-0.6-0.8-0.6
			c-0.5,0-0.8,0.2-0.8,0.6v3.4c0,0.4,0.3,0.6,0.8,0.6s0.8-0.2,0.8-0.6v-0.9h1.6v0.9c-0.2,1.3-1.4,2.2-2.7,2
			C282.8,80.6,282,79.8,281.9,78.8L281.9,78.8z"/>
		<path class="st6" d="M287.4,78.8v-3.4c0.2-1.3,1.4-2.2,2.7-2c1,0.2,1.8,1,2,2v3.4c-0.2,1.3-1.4,2.2-2.7,2
			C288.4,80.6,287.6,79.8,287.4,78.8z M290.6,78.8v-3.4c0-0.4-0.2-0.6-0.8-0.6c-0.6,0-0.8,0.2-0.8,0.6v3.4c0,0.4,0.2,0.6,0.8,0.6
			S290.6,79.2,290.6,78.8L290.6,78.8z"/>
		<path class="st6" d="M297.6,73.6v7.1h-1.4l-1.9-4v4h-1.3v-7.1h1.3l1.8,4.1v-4.1H297.6z"/>
		<path class="st6" d="M298.5,78.5v-0.3h1.5v0.4c0,0.4,0.3,0.7,0.7,0.7c0,0,0.1,0,0.1,0c0.4,0,0.7-0.3,0.7-0.6c0,0,0,0,0-0.1
			c0-1.3-3-1-3-3.3c-0.1-1.1,0.8-2,1.9-2.1c0.1,0,0.2,0,0.3,0c1.1-0.1,2,0.6,2.2,1.7c0,0.1,0,0.2,0,0.3v0.4h-1.5v-0.5
			c0-0.3-0.3-0.5-0.7-0.5c-0.3,0-0.6,0.2-0.6,0.5c0,0,0,0.1,0,0.1c0,1,3,0.8,3,3.2c0.1,1.2-0.8,2.1-2,2.2c-0.1,0-0.2,0-0.3,0
			c-1.2,0.1-2.2-0.8-2.3-1.9C298.5,78.8,298.5,78.7,298.5,78.5z"/>
		<path class="st6" d="M304,78.8v-3.4c0.2-1.3,1.4-2.2,2.7-2c1,0.2,1.8,1,2,2v3.4c-0.2,1.3-1.4,2.2-2.7,2
			C305,80.6,304.2,79.8,304,78.8z M307.2,78.8v-3.4c0-0.4-0.2-0.6-0.8-0.6c-0.6,0-0.8,0.2-0.8,0.6v3.4c0,0.4,0.2,0.6,0.8,0.6
			S307.2,79.2,307.2,78.8L307.2,78.8z"/>
		<path class="st6" d="M313.3,79.2v1.4h-3.7v-7.1h1.5v5.7H313.3z"/>
		<path class="st6" d="M315.7,75v1.5h1.7v1.4h-1.7v1.3h2.1v1.4h-3.7v-7.1h3.7v1.4L315.7,75z"/>
		<path class="st6" d="M320.7,79.8v-5.4c0-1.1,0.8-2,1.9-2c0.1,0,0.2,0,0.3,0v1.3c-0.4,0-0.7,0.2-0.7,0.6v5.5c0,0.4,0.3,0.6,0.7,0.6
			v1.3c-1.1,0.1-2-0.6-2.1-1.7C320.7,80,320.7,79.9,320.7,79.8z"/>
		<path class="st6" d="M323.2,78.5v-0.3h1.5v0.4c0,0.4,0.3,0.7,0.7,0.7c0,0,0.1,0,0.1,0c0.4,0,0.7-0.3,0.7-0.6c0,0,0,0,0-0.1
			c0-1.3-3-1-3-3.3c-0.1-1.1,0.8-2,1.9-2.1c0.1,0,0.2,0,0.3,0c1.1-0.1,2,0.6,2.2,1.7c0,0.1,0,0.2,0,0.3v0.4h-1.5v-0.5
			c0-0.3-0.3-0.5-0.7-0.5c-0.3,0-0.6,0.2-0.6,0.5c0,0,0,0.1,0,0.1c0,1,3,0.8,3,3.2c0.1,1.2-0.8,2.1-2,2.2c-0.1,0-0.2,0-0.3,0
			c-1.2,0.1-2.2-0.8-2.3-1.9C323.2,78.8,323.2,78.7,323.2,78.5z"/>
		<path class="st6" d="M331.7,79.4h-1.5l-0.3,1.2h-1.5l1.5-7.1h2l1.5,7.1H332L331.7,79.4z M331,75.4l-0.4,2.6h0.9L331,75.4z"/>
		<path class="st6" d="M337.5,79.4H336l-0.3,1.2h-1.5l1.5-7.1h2l1.5,7.1h-1.5L337.5,79.4z M336.7,75.4l-0.4,2.6h0.9L336.7,75.4z"/>
		<path class="st6" d="M339.9,78.5v-0.3h1.5v0.4c0,0.4,0.3,0.7,0.7,0.7c0,0,0.1,0,0.1,0c0.4,0,0.7-0.3,0.7-0.6c0,0,0,0,0-0.1
			c0-1.3-3-1-3-3.3c-0.1-1.1,0.8-2,1.9-2.1c0.1,0,0.2,0,0.3,0c1.1-0.1,2,0.6,2.2,1.7c0,0.1,0,0.2,0,0.3v0.4h-1.5v-0.5
			c0-0.3-0.3-0.5-0.7-0.5c-0.3,0-0.6,0.2-0.6,0.5c0,0,0,0.1,0,0.1c0,1,3,0.8,3,3.2c0.1,1.2-0.8,2.1-2,2.2c-0.1,0-0.2,0-0.3,0
			c-1.2,0.1-2.2-0.8-2.3-1.9C339.9,78.8,339.9,78.7,339.9,78.5z"/>
		<path class="st6" d="M352,75.5v0.9c0,1.1-0.9,2-1.9,2c-0.1,0-0.1,0-0.2,0H349v2.3h-1.5v-7.1h2.4c1.1-0.1,2,0.7,2.1,1.8
			C351.9,75.4,352,75.4,352,75.5z M350.4,75.4c0-0.2-0.2-0.5-0.4-0.5c0,0,0,0-0.1,0H349v2h0.9c0.2,0,0.5-0.2,0.5-0.4c0,0,0,0,0-0.1
			V75.4z"/>
		<path class="st6" d="M352.8,78.8v-3.4c0.2-1.3,1.4-2.2,2.7-2c1,0.2,1.8,1,2,2v3.4c-0.2,1.3-1.4,2.2-2.7,2
			C353.7,80.6,352.9,79.8,352.8,78.8z M355.9,78.8v-3.4c0-0.4-0.2-0.6-0.8-0.6c-0.6,0-0.8,0.2-0.8,0.6v3.4c0,0.4,0.2,0.6,0.8,0.6
			S355.9,79.2,355.9,78.8L355.9,78.8z"/>
		<path class="st6" d="M360.7,78.1H360v2.6h-1.6v-7.1h2.4c1.1-0.1,2,0.7,2.1,1.8c0,0.1,0,0.1,0,0.2v0.7c0,0.6-0.3,1.1-0.7,1.5l0.9,3
			h-1.6L360.7,78.1z M360,76.7h0.9c0.2,0,0.5-0.2,0.5-0.4c0,0,0,0,0-0.1v-0.8c0-0.2-0.2-0.4-0.4-0.5c0,0,0,0-0.1,0H360V76.7z"/>
		<path class="st6" d="M368.1,75h-1.5v5.7h-1.5V75h-1.5v-1.4h4.5L368.1,75z"/>
		<path class="st6" d="M371.4,79.4H370l-0.3,1.2h-1.5l1.5-7.1h2l1.5,7.1h-1.5L371.4,79.4z M370.7,75.4l-0.5,2.6h0.9L370.7,75.4z"/>
		<path class="st6" d="M377.7,79.2v1.4H374v-7.1h1.5v5.7H377.7z"/>
		<path class="st6" d="M378.4,80.4c0.4,0,0.6-0.2,0.6-0.6v-5.5c0-0.4-0.3-0.6-0.6-0.6v-1.3c1.1-0.1,2,0.6,2.1,1.7c0,0.1,0,0.2,0,0.3
			v5.4c0,1.1-0.8,2-1.9,2c-0.1,0-0.2,0-0.3,0V80.4z"/>
		<g id="ad5a93a4-a900-4d9f-801b-85382c239c4d">
			<g id="a0ed0070-3968-4e02-8dbd-719e201421b7">
				<path d="M41.1,186.5c0.9,0,1.6-0.7,1.6-1.6c0,0,0,0,0,0v-11.5c0-0.9-0.7-1.7-1.6-1.7c0,0,0,0,0,0c0,0,0,0,0,0
					c-0.9,0-1.6,0.8-1.7,1.7v11.5C39.4,185.8,40.2,186.5,41.1,186.5z M40.3,173.4c0-0.4,0.3-0.7,0.8-0.8c0.4,0,0.7,0.3,0.8,0.7
					c0,0,0,0,0,0v11.5c0,0.4-0.3,0.8-0.7,0.8c0,0,0,0,0,0c0,0,0,0,0,0c-0.4,0-0.7-0.4-0.8-0.8V173.4z"/>
				<path d="M7.5,186.5c0.9,0,1.6-0.7,1.6-1.6c0,0,0,0,0,0v-11.5c0-0.9-0.7-1.7-1.6-1.7c-0.9,0-1.7,0.7-1.7,1.6v11.6
					C5.8,185.8,6.5,186.5,7.5,186.5L7.5,186.5z M6.7,173.4c0-0.4,0.3-0.8,0.7-0.8s0.8,0.3,0.8,0.7c0,0,0,0,0,0.1v11.5
					c0,0.4-0.3,0.8-0.7,0.8s-0.8-0.3-0.8-0.7c0,0,0,0,0-0.1V173.4z"/>
				<path d="M30,180c2.8,0,5-2.3,4.9-5.1c0-2.7-2.2-4.9-4.9-4.9c-2.7,0-4.9,2.2-4.9,4.9c0,0,0,0.1,0,0.1c0,2.7,2.1,4.9,4.8,5L30,180
					z M30,170.8c2.3,0,4.1,1.8,4.2,4s-1.8,4.1-4,4.2c-2.3,0-4.1-1.8-4.2-4c0-0.1,0-0.1,0-0.2C26,172.7,27.8,170.9,30,170.8z"/>
				<path d="M16.9,189c0.6,0.7,1.6,0.9,2.3,0.3c0.1-0.1,0.2-0.2,0.3-0.3l2.7-3.4l2.7,3.3c0.3,0.4,0.8,0.7,1.3,0.6
					c0.5,0,1-0.2,1.3-0.6l2.8-3.4l2.7,3.3c0.3,0.4,0.8,0.6,1.3,0.6c0.4,0,0.8-0.1,1.1-0.4c0.7-0.6,0.8-1.6,0.3-2.3l-4.1-4.9
					c-0.3-0.4-0.7-0.6-1.2-0.6c-0.5,0-1,0.2-1.4,0.6l-2.8,3.4l-2.8-3.3c-0.3-0.4-0.8-0.7-1.3-0.6l0,0c-0.5,0-1,0.2-1.3,0.6l-2.8,3.4
					l-2.7-3.3c-0.2-0.4-0.6-0.6-1.1-0.6c-0.4-0.1-0.9,0.1-1.2,0.4c-0.3,0.3-0.6,0.6-0.6,1.1c-0.1,0.5,0.1,0.9,0.4,1.3L16.9,189z
					 M13.7,182.4c0.1-0.1,0.3-0.2,0.5-0.2c0,0,0.1,0,0.1,0c0.2,0,0.4,0.1,0.5,0.3l3.5,4.2l3.5-4.2c0.3-0.3,0.7-0.4,1.1-0.1
					c0,0,0.1,0.1,0.1,0.1l3.5,4.2l3.5-4.2c0.2-0.2,0.4-0.3,0.6-0.3c0.2,0,0.4,0.1,0.5,0.3l4.1,4.9c0.3,0.3,0.2,0.8-0.1,1.1l-0.1,0
					c-0.1,0.1-0.3,0.2-0.4,0.2c-0.2,0-0.4-0.1-0.6-0.3l-3.5-4.2l-3.5,4.2c-0.1,0.2-0.3,0.3-0.5,0.3c-0.2,0-0.5-0.1-0.6-0.3l-3.5-4.2
					l-3.4,4.2c-0.3,0.3-0.8,0.4-1.1,0.1c0,0-0.1-0.1-0.1-0.1l-4-4.9c-0.1-0.2-0.2-0.4-0.2-0.6C13.4,182.7,13.5,182.5,13.7,182.4
					L13.7,182.4z"/>
				<path d="M18.6,180c2.8,0,5-2.2,5-5c0-2.8-2.2-5-5-5c-2.8,0-5,2.2-5,5v0C13.5,177.7,15.8,179.9,18.6,180L18.6,180z M18.6,170.8
					c2.3,0,4.1,1.8,4.1,4.1c0,2.3-1.8,4.1-4.1,4.1c-2.3,0-4.1-1.8-4.1-4.1v0C14.4,172.7,16.2,170.9,18.6,170.8L18.6,170.8z"/>
				<path d="M12.5,193h23.3c1.3,0,2.4-1.1,2.4-2.4l0.1-23c0-1.3-1.1-2.4-2.4-2.4H12.6c-1.3,0-2.4,1.1-2.4,2.4l-0.1,23
					C10.1,191.9,11.2,193,12.5,193z M11.1,167.6c0-0.8,0.7-1.5,1.5-1.5H36c0.8,0,1.5,0.7,1.5,1.5l-0.1,23c0,0.8-0.7,1.5-1.5,1.5
					H12.5c-0.8,0-1.5-0.7-1.5-1.5L11.1,167.6z"/>
			</g>
		</g>
		<g id="baecb045-6475-446b-898d-c9acca36d188">
			<g id="b3c20032-c7f9-4416-91d0-3d3824cc5fe9">
				<path d="M18.7,131c0.1,0,0.1,0.1,0.2,0.1c0.2,0,0.3-0.1,0.4-0.2c0.1-0.1,0.1-0.2,0.2-0.3l1.7,4.1c0.5,1.1,1.6,1.8,2.8,1.8h0.7
					c1.2,0,2.3-0.7,2.8-1.8c0,0,0,0,0,0l1.7-4.2c0.1,0.1,0.2,0.3,0.3,0.4c0.1,0.2,0.4,0.3,0.6,0.2c0.2-0.1,0.3-0.3,0.2-0.5
					c-1.2-2.1-3.5-3.3-5.9-3.2c-2.3,0-4.5,1.2-5.7,3.2C18.4,130.6,18.5,130.8,18.7,131C18.7,131,18.7,131,18.7,131L18.7,131z
					 M24.2,128c1.6,0,3.1,0.5,4.2,1.6l-1.9,4.6l0,0c-0.3,0.8-1.1,1.3-2,1.3h-0.7c-0.9,0-1.7-0.5-2-1.3l-1.8-4.5
					C21.1,128.6,22.6,128,24.2,128L24.2,128z"/>
				<path d="M9.6,151.3l2.2,0.8c0.5,0.2,0.8,0.3,1,0.4c0.2,0.3,0.5,0.6,0.9,0.7c0,0,0.1,0,0.1,0l0.1,0h20.8c0,0,0.1,0,0.1,0
					c0.4-0.1,0.8-0.5,1-0.9l3.1-1c1.9-0.7,2.9-2.7,2.4-4.6l-2.9-9.7c-0.3-1-0.9-1.8-1.8-2.4l-3.5-2.1l0.5-1.2
					c0.3-0.9,0.2-1.9-0.3-2.8l-4.4-7c-1-1.6-2.7-2.6-4.6-2.6h0c-1.9,0-3.7,1-4.6,2.6l-4.4,7c-0.5,0.8-0.6,1.9-0.3,2.8l0.5,1.2
					l-3.5,2.1c-0.9,0.5-1.5,1.4-1.8,2.4l-2.9,9.7C6.7,148.6,7.7,150.6,9.6,151.3z M34.6,152.4H13.9c-0.1,0-0.4-0.2-0.4-0.4
					c0-0.2,0.3-0.3,0.4-0.4h20.7c0.1,0.1,0.4,0.2,0.4,0.4S34.7,152.3,34.6,152.4L34.6,152.4z M34.3,138.8v11.9h-20v-11.9L34.3,138.8
					z M36.1,135.3c0.7,0.4,1.2,1.1,1.5,1.9l2.9,9.7c0.4,1.5-0.4,3.1-1.8,3.6l-3,0.9c-0.1-0.2-0.4-0.4-0.6-0.6v-12.5
					c0-0.2-0.2-0.4-0.4-0.4h0h-5.1l1.7-1.6c0.1-0.1,0.2-0.2,0.2-0.3l1.2-2.8L36.1,135.3z M15.9,128.9l4.4-7c0.8-1.4,2.3-2.2,3.9-2.2
					h0c1.6,0,3.1,0.9,3.9,2.2l4.4,7c0.4,0.6,0.4,1.4,0.2,2l-2.1,4.8l-2.3,2.2h-8.3l-2.3-2.3l-2-4.8
					C15.5,130.3,15.6,129.5,15.9,128.9L15.9,128.9z M8,146.9l2.9-9.7c0.2-0.8,0.8-1.5,1.5-1.9l3.4-2.1L17,136
					c0.1,0.1,0.1,0.2,0.2,0.3l1.7,1.6h-5.1c-0.2,0-0.4,0.2-0.4,0.4c0,0,0,0,0,0v12.5c-0.3,0.1-0.6,0.4-0.7,0.7
					c-0.1-0.1-0.3-0.1-0.6-0.2l-2.2-0.8C8.4,150,7.6,148.4,8,146.9L8,146.9z"/>
			</g>
		</g>
		<g id="ede4f81a-e344-464b-86af-97fed283d302">
			<path d="M2.8,253C2.8,253,2.8,253,2.8,253c-0.1,1.2,0.7,2.2,1.8,2.3c0,0,0,0,0,0c0.2,0,0.7,0,1,0c0.5,2.4,2.9,3.9,5.2,3.4
				c1.7-0.4,3-1.7,3.4-3.4h20.2c0.5,2.4,2.9,3.9,5.2,3.4c1.5-0.3,2.8-1.5,3.3-3h1c0,0,0.1,0,0.1,0c0.4,0,0.8-0.2,1.2-0.4
				c0.5-0.4,0.7-1.1,0.6-1.7c-0.1-3.3-2.3-6.1-5.5-7c-2.4-0.7-4.9-1.2-7.4-1.5l-5.2-6.4c-0.1-0.1-0.2-0.2-0.4-0.2l-8.5-0.1l0,0
				l-10.5-0.1l0,0c-0.3,0-0.5,0.2-0.5,0.5c0,0.3,0.2,0.5,0.5,0.5l1,0c-1.6,1.6-2.7,3.6-3.2,5.8C3.8,245.5,2.8,248,2.8,253z
				 M7.1,244.9c0.6-2.2,1.9-4.2,3.6-5.7l7.5,0.1l-0.2,5.5C12.2,244.8,8.5,244.8,7.1,244.9L7.1,244.9z M31.5,244.8
				c-0.5,0-0.9-0.1-1.4-0.1h-11l0.2-5.5l7.8,0.1L31.5,244.8z M35.3,254.2L35.3,254.2c0-1.9,1.5-3.4,3.4-3.4c1.9,0,3.4,1.5,3.4,3.4
				c0,1.9-1.5,3.4-3.4,3.4C36.8,257.6,35.3,256.1,35.3,254.2z M6.5,254.2L6.5,254.2c0-1.9,1.5-3.4,3.4-3.4s3.4,1.5,3.4,3.4
				c0,1.9-1.5,3.4-3.4,3.4C8,257.6,6.5,256.1,6.5,254.2z M3.8,253c0-6.2,1.7-7,3-7.1c0.8-0.1,5.4-0.1,22.5-0.1h0.9
				c3.3,0.1,6.6,0.7,9.8,1.6c2.7,0.8,4.7,3.2,4.8,6.1c0,0.3-0.1,0.7-0.3,0.9c-0.2,0.1-0.4,0.2-0.6,0.2h-0.8c0-0.1,0-0.3,0-0.4
				c0-2.4-2-4.4-4.4-4.4s-4.4,2-4.4,4.4h-20c0,0,0-0.1,0-0.1c0-2.4-2-4.4-4.5-4.4c-2.4,0-4.4,2-4.4,4.5l0,0v0c-0.3,0-0.6,0-0.8,0
				C3.8,254.2,3.8,253.2,3.8,253L3.8,253z"/>
			<path d="M28.9,247h3.3c0.3,0,0.5,0.2,0.5,0.5s-0.2,0.5-0.5,0.5h-3.3c-0.3,0-0.5-0.2-0.5-0.5S28.6,247,28.9,247z"/>
		</g>
		<g id="ae0a83bf-d63c-4067-a907-abbad685cb28">
			<g id="b113ff4e-8fd0-4635-b8d0-8471bc1fd22e">
				<path d="M19.9,230.6c-1,0-1.9,0.8-1.9,1.9c0,1,0.8,1.9,1.9,1.9c1,0,1.9-0.8,1.9-1.9c0,0,0,0,0,0
					C21.8,231.4,20.9,230.6,19.9,230.6z M19.9,231c0.8,0,1.5,0.7,1.5,1.5c0,0.8-0.7,1.5-1.5,1.5c-0.8,0-1.5-0.7-1.5-1.5l0,0
					C18.4,231.7,19.1,231,19.9,231z"/>
				<path class="st1" d="M19.9,234.6c-1.2,0-2.1-0.9-2.1-2.1c0-1.2,0.9-2.1,2.1-2.1c1.2,0,2.1,0.9,2.1,2.1c0,0,0,0,0,0
					C22,233.7,21.1,234.6,19.9,234.6z M19.9,231.2c-0.7,0-1.2,0.6-1.2,1.2c0,0.7,0.6,1.2,1.2,1.2c0.7,0,1.2-0.6,1.2-1.2c0,0,0,0,0,0
					C21.1,231.8,20.6,231.2,19.9,231.2C19.9,231.2,19.9,231.2,19.9,231.2L19.9,231.2z"/>
				<path d="M16.5,229.3c-0.1,0-0.2-0.1-0.2-0.2c0,0,0-0.1,0.1-0.1c1.7-1.9,4.7-2.1,6.7-0.3c0,0,0,0,0,0c0.1,0.1,0.2,0.2,0.3,0.3
					c0.1,0.1,0.1,0.2,0,0.3c-0.1,0.1-0.2,0.1-0.3,0l0,0c-1.6-1.8-4.3-1.9-6.1-0.3c-0.1,0.1-0.2,0.2-0.3,0.3
					C16.6,229.3,16.6,229.3,16.5,229.3z"/>
				<path class="st1" d="M16.5,229.6c-0.2,0-0.4-0.2-0.4-0.4c0-0.1,0-0.2,0.1-0.3c1.8-2,5-2.2,7-0.4c0.1,0.1,0.2,0.2,0.4,0.4
					c0.2,0.2,0.1,0.5-0.1,0.6c-0.2,0.1-0.4,0.1-0.6,0c-1.5-1.7-4.1-1.8-5.8-0.3c0,0,0,0,0,0c-0.1,0.1-0.2,0.2-0.3,0.3
					C16.8,229.5,16.7,229.6,16.5,229.6z M23.2,229.2L23.2,229.2z"/>
				<path d="M14.3,227.1c-0.1,0-0.2-0.1-0.2-0.2c0-0.1,0-0.1,0.1-0.1c3.2-3.1,8.2-3.1,11.5,0c0.1,0.1,0.1,0.2,0,0.3
					c-0.1,0.1-0.2,0.1-0.3,0l0,0l0,0c-3.1-2.9-7.9-2.9-10.9,0C14.4,227.1,14.4,227.1,14.3,227.1z"/>
				<path class="st1" d="M25.5,227.3c-0.1,0-0.2,0-0.3-0.1c-3-2.8-7.6-2.8-10.6,0c-0.1,0.1-0.2,0.1-0.3,0.1c-0.2,0-0.4-0.2-0.4-0.4
					c0,0,0,0,0,0c0-0.1,0-0.2,0.1-0.3c3.3-3.1,8.5-3.1,11.8,0c0.2,0.2,0.2,0.4,0,0.6C25.7,227.3,25.6,227.3,25.5,227.3L25.5,227.3z
					 M25.5,226.8L25.5,226.8z"/>
				<path d="M27.2,224.8c-4.1-3.9-10.6-3.9-14.7,0c-0.1,0.1-0.2,0.1-0.3,0c-0.1-0.1-0.1-0.2,0-0.3c4.3-4,10.9-4,15.2,0
					c0.1,0.1,0.1,0.2,0,0.3C27.4,224.9,27.3,224.9,27.2,224.8C27.2,224.8,27.2,224.8,27.2,224.8z"/>
				<path class="st1" d="M12.4,225.1c-0.2,0-0.4-0.2-0.4-0.4c0-0.1,0-0.2,0.1-0.3c4.4-4.1,11.2-4.1,15.5,0c0.2,0.2,0.2,0.4,0,0.6
					c-0.2,0.2-0.4,0.2-0.6,0c0,0,0,0,0,0c-4-3.8-10.3-3.8-14.3,0C12.7,225,12.6,225.1,12.4,225.1z"/>
			</g>
		</g>
		<path class="st7" d="M472.3,160c-0.3,0-0.5-0.2-0.5-0.5v-13.6c0-0.2,0.1-0.3,0.2-0.4l11.7-6.8c0.2-0.1,0.5-0.1,0.7,0.2
			c0,0.1,0.1,0.2,0.1,0.3v6.3c0,0.3-0.2,0.5-0.5,0.5s-0.5-0.2-0.5-0.5v-5.4l-10.7,6.3v12.5l5.9-3.4c0.2-0.1,0.5-0.1,0.7,0.2
			s0.1,0.5-0.2,0.7l-6.6,3.8C472.5,160,472.4,160,472.3,160z"/>
		<path class="st7" d="M472.3,160c-0.1,0-0.2,0-0.2-0.1l-7-4c-0.2-0.1-0.3-0.5-0.2-0.7c0.1-0.2,0.4-0.3,0.7-0.2l6.2,3.5v-12.5
			l-10.8-6.3v6c0,0.3-0.2,0.5-0.5,0.5s-0.5-0.2-0.5-0.5V139c0-0.3,0.2-0.5,0.5-0.5c0.1,0,0.2,0,0.3,0.1l11.8,6.9
			c0.2,0.1,0.2,0.3,0.2,0.4v13.6C472.8,159.8,472.6,160,472.3,160L472.3,160z"/>
		<path class="st7" d="M472.3,146.4c-0.1,0-0.2,0-0.3-0.1l-11.8-6.9c-0.2-0.1-0.3-0.4-0.2-0.7c0-0.1,0.1-0.1,0.2-0.2l6-3.5
			c0.2-0.1,0.5,0,0.7,0.2c0.1,0.2,0,0.5-0.2,0.7l-5.2,3l10.8,6.3l10.8-6.3l-5.6-3.3c-0.2-0.1-0.3-0.4-0.2-0.7
			c0.1-0.2,0.4-0.3,0.7-0.2l6.4,3.7c0.2,0.1,0.3,0.4,0.2,0.7c0,0.1-0.1,0.1-0.2,0.2l-11.8,6.8C472.5,146.4,472.4,146.4,472.3,146.4z
			"/>
		<path class="st7" d="M463.3,157.3c-0.3,0-0.5-0.2-0.5-0.5v-6c0-0.2,0.1-0.3,0.2-0.4l5.6-3.2c0.2-0.1,0.5-0.1,0.7,0.2
			c0,0.1,0.1,0.2,0.1,0.3v6.1c0,0.2-0.1,0.3-0.3,0.4l-5.6,3.2C463.5,157.2,463.4,157.3,463.3,157.3z M463.8,151v4.9l4.6-2.6v-4.9
			L463.8,151z"/>
		<path class="st7" d="M463.3,157.3c-0.1,0-0.2,0-0.2-0.1l-5.6-3.2c-0.2-0.1-0.3-0.3-0.3-0.4v-6.1c0-0.3,0.2-0.5,0.5-0.5
			c0.1,0,0.2,0,0.3,0.1l5.6,3.3c0.2,0.1,0.2,0.3,0.2,0.4v6C463.8,157,463.6,157.3,463.3,157.3z M458.3,153.3l4.6,2.6V151l-4.6-2.7
			V153.3z"/>
		<path class="st7" d="M463.3,151.2c-0.1,0-0.2,0-0.3-0.1l-5.6-3.3c-0.2-0.1-0.3-0.4-0.2-0.7c0-0.1,0.1-0.1,0.2-0.2l5.5-3.2
			c0.2-0.1,0.3-0.1,0.5,0l5.6,3.2c0.2,0.1,0.3,0.4,0.2,0.7c0,0.1-0.1,0.1-0.2,0.2l-5.6,3.2C463.5,151.2,463.4,151.2,463.3,151.2z
			 M458.7,147.5l4.6,2.7l4.6-2.7l-4.6-2.7L458.7,147.5z"/>
		<path class="st7" d="M481.3,157.3c-0.3,0-0.5-0.2-0.5-0.5v-6c0-0.2,0.1-0.3,0.2-0.4l5.6-3.2c0.2-0.1,0.5-0.1,0.7,0.2
			c0,0.1,0.1,0.2,0.1,0.3v6.1c0,0.2-0.1,0.3-0.3,0.4l-5.6,3.2C481.5,157.2,481.4,157.3,481.3,157.3z M481.8,151v4.9l4.6-2.6v-4.9
			L481.8,151z"/>
		<path class="st7" d="M481.3,157.3c-0.1,0-0.2,0-0.2-0.1l-5.6-3.2c-0.2-0.1-0.3-0.3-0.3-0.4v-6.1c0-0.3,0.2-0.5,0.5-0.5
			c0.1,0,0.2,0,0.3,0.1l5.6,3.3c0.2,0.1,0.2,0.3,0.2,0.4v6C481.8,157,481.6,157.3,481.3,157.3z M476.3,153.3l4.6,2.6V151l-4.6-2.7
			V153.3z"/>
		<path class="st7" d="M481.3,151.2c-0.1,0-0.2,0-0.3-0.1l-5.6-3.3c-0.2-0.1-0.3-0.4-0.2-0.7c0-0.1,0.1-0.1,0.2-0.2l5.5-3.2
			c0.2-0.1,0.3-0.1,0.5,0l5.6,3.2c0.2,0.1,0.3,0.4,0.2,0.7c0,0.1-0.1,0.1-0.2,0.2l-5.6,3.2C481.5,151.2,481.4,151.2,481.3,151.2z
			 M476.8,147.5l4.6,2.7l4.6-2.7l-4.6-2.7L476.8,147.5z"/>
		<path class="st7" d="M472.1,142.5c-0.3,0-0.5-0.2-0.5-0.5v-6c0-0.2,0.1-0.3,0.2-0.4l5.6-3.2c0.2-0.1,0.5-0.1,0.7,0.2
			c0,0.1,0.1,0.2,0.1,0.3v6.1c0,0.2-0.1,0.3-0.2,0.4l-5.6,3.2C472.3,142.4,472.2,142.5,472.1,142.5z M472.6,136.2v4.9l4.6-2.6v-4.9
			L472.6,136.2z"/>
		<path class="st7" d="M472.1,142.5c-0.1,0-0.2,0-0.2-0.1l-5.6-3.2c-0.2-0.1-0.3-0.3-0.3-0.4v-6.1c0-0.3,0.2-0.5,0.5-0.5
			c0.1,0,0.2,0,0.3,0.1l5.6,3.3c0.2,0.1,0.2,0.3,0.2,0.4v6C472.6,142.2,472.4,142.5,472.1,142.5L472.1,142.5z M467,138.5l4.6,2.6
			v-4.9l-4.6-2.7V138.5z"/>
		<path class="st7" d="M472.1,136.4c-0.1,0-0.2,0-0.3-0.1l-5.6-3.3c-0.2-0.1-0.3-0.4-0.2-0.7c0-0.1,0.1-0.1,0.2-0.2l5.5-3.2
			c0.2-0.1,0.3-0.1,0.5,0l5.6,3.2c0.2,0.1,0.3,0.4,0.2,0.7c0,0.1-0.1,0.1-0.2,0.2l-5.6,3.2C472.3,136.4,472.2,136.4,472.1,136.4z
			 M467.5,132.7l4.6,2.7l4.6-2.7l-4.6-2.7L467.5,132.7z"/>
		<path class="st6" d="M470.5,106.3h-1.4l-0.3,1.3h-1.5l1.5-7.1h2l1.5,7.1h-1.5L470.5,106.3z M469.8,102.4l-0.5,2.6h0.9L469.8,102.4
			z"/>
		<path class="st6" d="M473,105.7v-3.4c0.2-1.3,1.4-2.2,2.7-2c1,0.2,1.8,1,2,2v0.9h-1.6v-0.9c0-0.4-0.3-0.6-0.8-0.6
			c-0.5,0-0.8,0.2-0.8,0.6v3.4c0,0.4,0.3,0.6,0.8,0.6s0.8-0.2,0.8-0.6v-0.9h1.6v0.9c-0.2,1.3-1.4,2.2-2.7,2
			C473.9,107.6,473.1,106.8,473,105.7L473,105.7z"/>
		<path class="st6" d="M478.5,105.7v-3.4c0.2-1.3,1.4-2.2,2.7-2c1,0.2,1.8,1,2,2v0.9h-1.6v-0.9c0-0.4-0.3-0.6-0.8-0.6
			c-0.5,0-0.8,0.2-0.8,0.6v3.4c0,0.4,0.3,0.6,0.8,0.6s0.8-0.2,0.8-0.6v-0.9h1.6v0.9c-0.2,1.3-1.4,2.2-2.7,2
			C479.5,107.6,478.7,106.8,478.5,105.7L478.5,105.7z"/>
		<path class="st6" d="M485.7,101.9v1.5h1.7v1.4h-1.7v1.4h2.1v1.4h-3.7v-7.1h3.7v1.4H485.7z"/>
		<path class="st6" d="M492.3,106.2v1.4h-3.7v-7.1h1.5v5.7H492.3z"/>
		<path class="st6" d="M494.6,101.9v1.5h1.7v1.4h-1.7v1.4h2.1v1.4h-3.7v-7.1h3.7v1.4H494.6z"/>
		<path class="st6" d="M499.9,105h-0.7v2.6h-1.5v-7.1h2.4c1.1-0.1,2,0.7,2.1,1.8c0,0.1,0,0.1,0,0.2v0.7c0,0.6-0.3,1.1-0.7,1.5l0.9,3
			h-1.6L499.9,105z M499.1,103.6h0.9c0.2,0,0.5-0.2,0.5-0.4c0,0,0,0,0-0.1v-0.8c0-0.2-0.2-0.4-0.4-0.5c0,0,0,0-0.1,0h-0.9V103.6z"/>
		<path class="st6" d="M506.2,106.3h-1.4l-0.3,1.2H503l1.5-7.1h2l1.5,7.1h-1.5L506.2,106.3z M505.5,102.4l-0.5,2.6h0.9L505.5,102.4z
			"/>
		<path class="st6" d="M512.6,101.9h-1.5v5.7h-1.5v-5.7h-1.5v-1.4h4.5L512.6,101.9z"/>
		<path class="st6" d="M514.9,101.9v1.5h1.7v1.4h-1.7v1.4h2.1v1.4h-3.7v-7.1h3.7v1.4H514.9z"/>
		<path class="st6" d="M524.9,104.6h-0.6v1.1c0,1-0.8,1.8-1.8,1.9c0,0,0,0-0.1,0h-0.7c-1,0-1.8-0.8-1.9-1.8c0,0,0,0,0-0.1v-0.6
			c0-0.4,0.1-0.8,0.4-1.2c-0.3-0.3-0.4-0.7-0.4-1.1v-0.5c0-1,0.8-1.8,1.8-1.8c0,0,0,0,0.1,0h1.5v1.3h-1.5c-0.2,0-0.3,0.2-0.3,0.4
			v0.7c0,0.2,0.1,0.4,0.3,0.4h1.1v-0.8h1.5v0.8h0.6L524.9,104.6z M522.8,104.6h-1.1c-0.2,0-0.3,0.2-0.3,0.4v0.8
			c0,0.2,0.1,0.4,0.3,0.4h0.7c0.2,0,0.3-0.2,0.3-0.4L522.8,104.6z"/>
		<path class="st6" d="M527.6,105.5v-0.3h1.5v0.4c0,0.4,0.3,0.7,0.7,0.7c0,0,0.1,0,0.1,0c0.4,0,0.7-0.3,0.7-0.6c0,0,0,0,0-0.1
			c0-1.3-3-1-3-3.3c-0.1-1.1,0.8-2,1.9-2.1c0.1,0,0.2,0,0.3,0c1.1-0.1,2,0.6,2.2,1.7c0,0.1,0,0.2,0,0.3v0.4h-1.5v-0.5
			c0-0.3-0.3-0.5-0.7-0.5c-0.3,0-0.6,0.2-0.6,0.5c0,0,0,0.1,0,0.1c0,1,3,0.8,3,3.2c0.1,1.2-0.8,2.1-2,2.2c-0.1,0-0.2,0-0.3,0
			c-1.2,0.1-2.2-0.8-2.3-1.9C527.5,105.7,527.5,105.6,527.6,105.5z"/>
		<path class="st6" d="M534.6,101.9v1.5h1.7v1.4h-1.7v1.4h2.1v1.4h-3.7v-7.1h3.7v1.4H534.6z"/>
		<path class="st6" d="M537.5,105.7v-3.4c0.2-1.3,1.4-2.2,2.7-2c1,0.2,1.8,1,2,2v0.9h-1.6v-0.9c0-0.4-0.3-0.6-0.8-0.6
			c-0.5,0-0.8,0.2-0.8,0.6v3.4c0,0.4,0.3,0.6,0.8,0.6s0.8-0.2,0.8-0.6v-0.9h1.6v0.9c-0.2,1.3-1.4,2.2-2.7,2
			C538.5,107.6,537.7,106.8,537.5,105.7L537.5,105.7z"/>
		<path class="st6" d="M543.1,105.7v-5.2h1.5v5.2c0,0.4,0.2,0.6,0.7,0.6s0.7-0.2,0.7-0.6v-5.2h1.5v5.2c-0.1,1.3-1.3,2.2-2.5,2
			C544.1,107.6,543.2,106.8,543.1,105.7L543.1,105.7z"/>
		<path class="st6" d="M550.9,105h-0.7v2.6h-1.5v-7.1h2.4c1.1-0.1,2,0.7,2.1,1.8c0,0.1,0,0.1,0,0.2v0.7c0,0.6-0.3,1.1-0.7,1.5l0.9,3
			h-1.6L550.9,105z M550.1,103.6h0.9c0.2,0,0.5-0.2,0.5-0.4c0,0,0,0,0-0.1v-0.8c0-0.2-0.2-0.4-0.4-0.5c0,0,0,0-0.1,0h-0.9
			L550.1,103.6z"/>
		<path class="st6" d="M555.7,101.9v1.5h1.7v1.4h-1.7v1.4h2.1v1.4h-3.7v-7.1h3.7v1.4H555.7z"/>
		<g id="a1e4d645-5831-44d6-b51c-15fb2546e5a8">
			<g id="e5149f9b-82f3-437d-ac31-420ae9d3ac73">
				<g id="ba126205-d5a9-4419-aa17-0632196baf98">
					<path d="M521.6,159.5h-17.9c-3.9,0-7-3.2-7-7v-17.9c0-3.9,3.2-7,7-7h17.9c3.9,0,7,3.2,7,7v17.9
						C528.6,156.4,525.5,159.5,521.6,159.5z M503.7,128.3c-3.5,0-6.3,2.8-6.3,6.3v17.9c0,3.5,2.8,6.3,6.3,6.3h17.9
						c3.5,0,6.3-2.8,6.3-6.3v-17.9c0-3.5-2.8-6.3-6.3-6.3H503.7z"/>
				</g>
				<path d="M508.3,145.1c0-0.1-0.1-0.2-0.1-0.2c0-0.1,0-0.2,0-0.3c-0.1,0.1-0.2,0.2-0.3,0.2c-0.1,0.1-0.2,0.1-0.3,0.2
					c-0.1,0.1-0.3,0.1-0.4,0.1c-0.1,0-0.3,0.1-0.5,0.1c-0.2,0-0.5,0-0.7-0.1c-0.2-0.1-0.4-0.2-0.5-0.3c-0.1-0.1-0.3-0.3-0.3-0.5
					c-0.1-0.2-0.1-0.4-0.1-0.6c0-0.2,0-0.5,0.2-0.7c0.1-0.2,0.3-0.4,0.5-0.5c0.2-0.1,0.5-0.2,0.7-0.3c0.3-0.1,0.6-0.1,0.9-0.1h0.9
					v-0.4c0-0.1,0-0.3-0.1-0.4c-0.1-0.1-0.1-0.2-0.2-0.3c-0.1-0.1-0.2-0.2-0.4-0.2c-0.2,0-0.3-0.1-0.5-0.1c-0.2,0-0.3,0-0.5,0.1
					c-0.1,0-0.2,0.1-0.3,0.2c-0.1,0.1-0.2,0.2-0.2,0.2c-0.1,0.1-0.1,0.2-0.1,0.3H505c0-0.2,0.1-0.4,0.1-0.5c0.1-0.2,0.2-0.3,0.4-0.5
					c0.2-0.1,0.4-0.3,0.6-0.3c0.3-0.1,0.5-0.1,0.8-0.1c0.3,0,0.5,0,0.8,0.1c0.2,0.1,0.4,0.2,0.6,0.3c0.2,0.1,0.3,0.3,0.4,0.5
					c0.1,0.2,0.2,0.5,0.2,0.7v2.3c0,0.2,0,0.4,0,0.5c0,0.2,0.1,0.3,0.1,0.5v0.1L508.3,145.1z M506.8,144.5c0.2,0,0.3,0,0.5-0.1
					c0.1,0,0.3-0.1,0.4-0.2c0.1-0.1,0.2-0.1,0.3-0.2c0.1-0.1,0.1-0.2,0.2-0.3v-1h-0.8c-0.4,0-0.8,0.1-1.2,0.2
					c-0.3,0.1-0.4,0.4-0.4,0.7c0,0.1,0,0.2,0.1,0.3c0,0.1,0.1,0.2,0.2,0.3c0.1,0.1,0.2,0.1,0.3,0.2
					C506.5,144.4,506.6,144.5,506.8,144.5L506.8,144.5z"/>
				<path d="M514.8,142.7c0,0.3,0,0.7-0.1,1c-0.1,0.3-0.2,0.6-0.4,0.8c-0.2,0.2-0.4,0.4-0.6,0.5c-0.3,0.1-0.5,0.2-0.8,0.2
					c-0.3,0-0.5,0-0.8-0.1c-0.2-0.1-0.4-0.2-0.6-0.4v2.4h-0.8v-6.8h0.8l0,0.5c0.2-0.2,0.4-0.4,0.6-0.5c0.3-0.1,0.5-0.2,0.8-0.2
					c0.3,0,0.6,0.1,0.8,0.2c0.2,0.1,0.5,0.3,0.6,0.5c0.2,0.2,0.3,0.5,0.4,0.8C514.7,141.9,514.8,142.2,514.8,142.7L514.8,142.7z
					 M513.9,142.6c0-0.2,0-0.5-0.1-0.7c0-0.2-0.1-0.4-0.2-0.6c-0.1-0.2-0.3-0.3-0.4-0.4c-0.2-0.1-0.4-0.2-0.6-0.1
					c-0.2,0-0.5,0.1-0.7,0.2c-0.2,0.1-0.3,0.3-0.4,0.5v2.4c0.1,0.2,0.3,0.4,0.4,0.5c0.2,0.1,0.5,0.2,0.7,0.2c0.2,0,0.4,0,0.6-0.1
					c0.2-0.1,0.3-0.2,0.4-0.4c0.1-0.2,0.2-0.4,0.2-0.6C513.9,143.1,513.9,142.9,513.9,142.6L513.9,142.6z"/>
				<path d="M520.4,142.7c0,0.3,0,0.7-0.1,1c-0.1,0.3-0.2,0.6-0.4,0.8c-0.3,0.5-0.9,0.7-1.4,0.7c-0.3,0-0.5,0-0.8-0.1
					c-0.2-0.1-0.4-0.2-0.6-0.4v2.4h-0.8v-6.8h0.8l0,0.5c0.2-0.2,0.4-0.4,0.6-0.5c0.3-0.1,0.5-0.2,0.8-0.2c0.3,0,0.6,0.1,0.8,0.2
					c0.2,0.1,0.5,0.3,0.6,0.5c0.2,0.2,0.3,0.5,0.4,0.8C520.3,141.9,520.4,142.2,520.4,142.7L520.4,142.7z M519.5,142.6
					c0-0.2,0-0.5-0.1-0.7c0-0.2-0.1-0.4-0.2-0.6c-0.1-0.2-0.3-0.3-0.4-0.4c-0.2-0.1-0.4-0.2-0.6-0.1c-0.2,0-0.5,0.1-0.7,0.2
					c-0.2,0.1-0.3,0.3-0.4,0.5v2.4c0.1,0.2,0.3,0.4,0.4,0.5c0.2,0.1,0.4,0.2,0.7,0.2c0.2,0,0.4,0,0.6-0.1c0.2-0.1,0.3-0.2,0.4-0.4
					c0.1-0.2,0.2-0.4,0.2-0.6C519.5,143.1,519.5,142.9,519.5,142.6L519.5,142.6z"/>
			</g>
		</g>
		<g id="b00a0ee9-aeb1-4b26-8874-3caba10b4e03">
			<g id="bc16d83b-88b6-4fcc-bfd0-def57a6e6086">
				<g id="a8aa7640-452f-4d6e-a235-229c7f224edd">
					<path d="M563.2,159.5h-17.9c-3.9,0-7-3.2-7-7v-17.9c0-3.9,3.2-7,7-7h17.9c3.9,0,7,3.2,7,7v17.9
						C570.3,156.4,567.1,159.5,563.2,159.5z M545.3,128.3c-3.5,0-6.3,2.8-6.3,6.3v17.9c0,3.5,2.8,6.3,6.3,6.3h17.9
						c3.5,0,6.3-2.8,6.3-6.3v-17.9c0-3.5-2.8-6.3-6.3-6.3H545.3z"/>
				</g>
				<path d="M549.9,145.1c0-0.1-0.1-0.2-0.1-0.2c0-0.1,0-0.2,0-0.3c-0.1,0.1-0.2,0.2-0.3,0.2c-0.1,0.1-0.2,0.1-0.3,0.2
					c-0.1,0.1-0.3,0.1-0.4,0.1c-0.1,0-0.3,0.1-0.5,0.1c-0.2,0-0.5,0-0.7-0.1c-0.2-0.1-0.4-0.2-0.5-0.3c-0.1-0.1-0.3-0.3-0.3-0.5
					c-0.1-0.2-0.1-0.4-0.1-0.6c0-0.2,0-0.5,0.2-0.7c0.1-0.2,0.3-0.4,0.5-0.5c0.2-0.1,0.5-0.2,0.7-0.3c0.3-0.1,0.6-0.1,0.9-0.1h0.9
					v-0.4c0-0.1,0-0.3-0.1-0.4c-0.1-0.1-0.1-0.2-0.2-0.3c-0.1-0.1-0.2-0.2-0.4-0.2c-0.2,0-0.3-0.1-0.5-0.1c-0.2,0-0.3,0-0.5,0.1
					c-0.1,0-0.2,0.1-0.3,0.2c-0.1,0.1-0.2,0.2-0.2,0.2c-0.1,0.1-0.1,0.2-0.1,0.3h-0.8c0-0.2,0.1-0.4,0.1-0.5
					c0.1-0.2,0.2-0.3,0.4-0.5c0.2-0.1,0.4-0.3,0.6-0.3c0.3-0.1,0.5-0.1,0.8-0.1c0.3,0,0.5,0,0.8,0.1c0.2,0.1,0.4,0.2,0.6,0.3
					c0.2,0.1,0.3,0.3,0.4,0.5c0.1,0.2,0.2,0.5,0.2,0.7v2.3c0,0.2,0,0.4,0,0.5c0,0.2,0.1,0.3,0.1,0.5v0.1L549.9,145.1z M548.4,144.5
					c0.2,0,0.3,0,0.5-0.1c0.1,0,0.3-0.1,0.4-0.2c0.1-0.1,0.2-0.1,0.3-0.2c0.1-0.1,0.1-0.2,0.2-0.3v-1H549c-0.4,0-0.8,0.1-1.2,0.2
					c-0.3,0.1-0.4,0.4-0.4,0.7c0,0.1,0,0.2,0.1,0.3c0,0.1,0.1,0.2,0.2,0.3c0.1,0.1,0.2,0.1,0.3,0.2
					C548.1,144.4,548.3,144.5,548.4,144.5L548.4,144.5z"/>
				<path d="M556.4,142.7c0,0.3,0,0.7-0.1,1c-0.1,0.3-0.2,0.6-0.4,0.8c-0.2,0.2-0.4,0.4-0.6,0.5c-0.3,0.1-0.5,0.2-0.8,0.2
					c-0.3,0-0.5,0-0.8-0.1c-0.2-0.1-0.4-0.2-0.6-0.4v2.4h-0.8v-6.8h0.8l0,0.5c0.2-0.2,0.4-0.4,0.6-0.5c0.3-0.1,0.5-0.2,0.8-0.2
					c0.3,0,0.6,0.1,0.8,0.2c0.2,0.1,0.5,0.3,0.6,0.5c0.2,0.2,0.3,0.5,0.4,0.8C556.4,141.9,556.4,142.2,556.4,142.7L556.4,142.7z
					 M555.6,142.6c0-0.2,0-0.5-0.1-0.7c0-0.2-0.1-0.4-0.2-0.6c-0.1-0.2-0.3-0.3-0.4-0.4c-0.2-0.1-0.4-0.2-0.6-0.1
					c-0.2,0-0.5,0.1-0.7,0.2c-0.2,0.1-0.3,0.3-0.4,0.5v2.4c0.1,0.2,0.3,0.4,0.4,0.5c0.2,0.1,0.5,0.2,0.7,0.2c0.2,0,0.4,0,0.6-0.1
					c0.2-0.1,0.3-0.2,0.4-0.4c0.1-0.2,0.2-0.4,0.2-0.6C555.6,143.1,555.6,142.9,555.6,142.6L555.6,142.6z"/>
				<path d="M562,142.7c0,0.3,0,0.7-0.1,1c-0.1,0.3-0.2,0.6-0.4,0.8c-0.3,0.5-0.9,0.7-1.4,0.7c-0.3,0-0.5,0-0.8-0.1
					c-0.2-0.1-0.4-0.2-0.6-0.4v2.4h-0.8v-6.8h0.8l0,0.5c0.2-0.2,0.4-0.4,0.6-0.5c0.3-0.1,0.5-0.2,0.8-0.2c0.3,0,0.6,0.1,0.8,0.2
					c0.2,0.1,0.5,0.3,0.6,0.5c0.2,0.2,0.3,0.5,0.4,0.8C562,141.9,562.1,142.2,562,142.7L562,142.7z M561.2,142.6
					c0-0.2,0-0.5-0.1-0.7c0-0.2-0.1-0.4-0.2-0.6c-0.1-0.2-0.3-0.3-0.4-0.4c-0.2-0.1-0.4-0.2-0.6-0.1c-0.2,0-0.5,0.1-0.7,0.2
					c-0.2,0.1-0.3,0.3-0.4,0.5v2.4c0.1,0.2,0.3,0.4,0.4,0.5c0.2,0.1,0.4,0.2,0.7,0.2c0.2,0,0.4,0,0.6-0.1c0.2-0.1,0.3-0.2,0.4-0.4
					c0.1-0.2,0.2-0.4,0.2-0.6C561.2,143.1,561.2,142.9,561.2,142.6L561.2,142.6z"/>
			</g>
		</g>
		<path class="st6" d="M498,211.3V211h1.5v0.4c0,0.4,0.3,0.7,0.7,0.7c0,0,0.1,0,0.1,0c0.4,0,0.7-0.3,0.7-0.6c0,0,0,0,0-0.1
			c0-1.3-3-1-3-3.3c-0.1-1.1,0.8-2,1.9-2.1c0.1,0,0.2,0,0.3,0c1.1-0.1,2,0.6,2.2,1.7c0,0.1,0,0.2,0,0.3v0.4h-1.5v-0.5
			c0-0.3-0.3-0.5-0.7-0.5c-0.3,0-0.6,0.2-0.6,0.5c0,0,0,0.1,0,0.1c0,1,3,0.8,3,3.2c0.1,1.2-0.8,2.1-2,2.2c-0.1,0-0.2,0-0.3,0
			c-1.2,0.1-2.2-0.8-2.3-1.9C498,211.5,498,211.4,498,211.3z"/>
		<path class="st6" d="M505.1,207.7v1.5h1.7v1.4h-1.7v1.3h2.1v1.4h-3.7v-7.1h3.7v1.4L505.1,207.7z"/>
		<path class="st6" d="M508,211.5v-3.4c0.2-1.3,1.4-2.2,2.7-2c1,0.2,1.8,1,2,2v0.9h-1.6v-0.9c0-0.4-0.3-0.6-0.8-0.6
			c-0.5,0-0.8,0.2-0.8,0.6v3.4c0,0.4,0.3,0.6,0.8,0.6s0.8-0.2,0.8-0.6v-0.9h1.6v0.9c-0.2,1.3-1.4,2.2-2.7,2
			C509,213.4,508.2,212.6,508,211.5L508,211.5z"/>
		<path class="st6" d="M513.6,211.5v-5.2h1.5v5.2c0,0.4,0.2,0.6,0.7,0.6s0.7-0.2,0.7-0.6v-5.2h1.5v5.2c-0.1,1.3-1.3,2.2-2.5,2
			C514.5,213.4,513.7,212.6,513.6,211.5L513.6,211.5z"/>
		<path class="st6" d="M521.4,210.8h-0.7v2.6h-1.5v-7.1h2.4c1.1-0.1,2,0.7,2.1,1.8c0,0.1,0,0.1,0,0.2v0.7c0,0.6-0.2,1.1-0.7,1.5
			l0.9,3h-1.6L521.4,210.8z M520.6,209.4h0.9c0.2,0,0.5-0.2,0.5-0.4c0,0,0,0,0-0.1v-0.8c0-0.2-0.2-0.4-0.4-0.5c0,0,0,0-0.1,0h-0.9
			L520.6,209.4z"/>
		<path class="st6" d="M526.2,207.7v1.5h1.7v1.4h-1.7v1.3h2.1v1.4h-3.7v-7.1h3.7v1.4L526.2,207.7z"/>
		<g id="f338c9f0-4626-41ba-a1a0-4bb81242e0f6">
			<g id="b64a3d95-d010-4a6a-a570-6731633a66f2">
				<g id="ad19aa13-4e68-49f6-95ba-191803fbdd47">
					<path d="M521.6,265.3h-17.9c-3.9,0-7-3.2-7-7v-17.9c0-3.9,3.2-7,7-7h17.9c3.9,0,7,3.2,7,7v17.9
						C528.6,262.2,525.5,265.3,521.6,265.3z M503.7,234.1c-3.5,0-6.3,2.8-6.3,6.3v17.9c0,3.5,2.8,6.3,6.3,6.3h17.9
						c3.5,0,6.3-2.8,6.3-6.3v-17.9c0-3.5-2.8-6.3-6.3-6.3L503.7,234.1z"/>
				</g>
				<path d="M508.3,250.9c0-0.1-0.1-0.2-0.1-0.2c0-0.1,0-0.2,0-0.3c-0.1,0.1-0.2,0.2-0.3,0.2c-0.1,0.1-0.2,0.1-0.3,0.2
					c-0.1,0.1-0.3,0.1-0.4,0.1c-0.1,0-0.3,0.1-0.5,0.1c-0.2,0-0.5,0-0.7-0.1c-0.2-0.1-0.4-0.2-0.5-0.3c-0.1-0.1-0.3-0.3-0.3-0.5
					c-0.1-0.2-0.1-0.4-0.1-0.6c0-0.2,0-0.5,0.2-0.7c0.1-0.2,0.3-0.4,0.5-0.5c0.2-0.1,0.5-0.2,0.7-0.3c0.3-0.1,0.6-0.1,0.9-0.1h0.9
					v-0.4c0-0.1,0-0.3-0.1-0.4c-0.1-0.1-0.1-0.2-0.2-0.3c-0.1-0.1-0.2-0.2-0.4-0.2c-0.2,0-0.3-0.1-0.5-0.1c-0.2,0-0.3,0-0.5,0.1
					c-0.1,0-0.2,0.1-0.3,0.2c-0.1,0.1-0.2,0.2-0.2,0.2c-0.1,0.1-0.1,0.2-0.1,0.3H505c0-0.2,0.1-0.4,0.1-0.5c0.1-0.2,0.2-0.3,0.4-0.5
					c0.2-0.1,0.4-0.3,0.6-0.3c0.3-0.1,0.5-0.1,0.8-0.1c0.3,0,0.5,0,0.8,0.1c0.2,0.1,0.4,0.2,0.6,0.3c0.2,0.1,0.3,0.3,0.4,0.5
					c0.1,0.2,0.2,0.5,0.2,0.7v2.3c0,0.2,0,0.4,0,0.5c0,0.2,0.1,0.3,0.1,0.5v0.1L508.3,250.9z M506.8,250.3c0.2,0,0.3,0,0.5-0.1
					c0.1,0,0.3-0.1,0.4-0.2c0.1-0.1,0.2-0.1,0.3-0.2c0.1-0.1,0.1-0.2,0.2-0.3v-1h-0.8c-0.4,0-0.8,0.1-1.2,0.2
					c-0.3,0.1-0.4,0.4-0.4,0.7c0,0.1,0,0.2,0.1,0.3c0,0.1,0.1,0.2,0.2,0.3c0.1,0.1,0.2,0.1,0.3,0.2
					C506.5,250.3,506.6,250.3,506.8,250.3z"/>
				<path d="M514.8,248.5c0,0.3,0,0.7-0.1,1c-0.1,0.3-0.2,0.6-0.4,0.8c-0.2,0.2-0.4,0.4-0.6,0.5c-0.3,0.1-0.5,0.2-0.8,0.2
					c-0.3,0-0.5,0-0.8-0.1c-0.2-0.1-0.4-0.2-0.6-0.4v2.4h-0.8V246h0.8l0,0.5c0.2-0.2,0.4-0.4,0.6-0.5c0.3-0.1,0.5-0.2,0.8-0.2
					c0.3,0,0.6,0.1,0.8,0.2c0.2,0.1,0.5,0.3,0.6,0.5c0.2,0.2,0.3,0.5,0.4,0.8C514.7,247.7,514.8,248.1,514.8,248.5L514.8,248.5z
					 M513.9,248.4c0-0.2,0-0.5-0.1-0.7c0-0.2-0.1-0.4-0.2-0.6c-0.1-0.2-0.3-0.3-0.4-0.4c-0.2-0.1-0.4-0.2-0.6-0.1
					c-0.2,0-0.5,0.1-0.7,0.2c-0.2,0.1-0.3,0.3-0.4,0.5v2.4c0.1,0.2,0.3,0.4,0.4,0.5c0.2,0.1,0.5,0.2,0.7,0.2c0.2,0,0.4,0,0.6-0.1
					c0.2-0.1,0.3-0.2,0.4-0.4c0.1-0.2,0.2-0.4,0.2-0.6C513.9,249,513.9,248.7,513.9,248.4L513.9,248.4z"/>
				<path d="M520.4,248.5c0,0.3,0,0.7-0.1,1c-0.1,0.3-0.2,0.6-0.4,0.8c-0.3,0.5-0.9,0.7-1.4,0.7c-0.3,0-0.5,0-0.8-0.1
					c-0.2-0.1-0.4-0.2-0.6-0.4v2.4h-0.8V246h0.8l0,0.5c0.2-0.2,0.4-0.4,0.6-0.5c0.3-0.1,0.5-0.2,0.8-0.2c0.3,0,0.6,0.1,0.8,0.2
					c0.2,0.1,0.5,0.3,0.6,0.5c0.2,0.2,0.3,0.5,0.4,0.8C520.3,247.7,520.4,248.1,520.4,248.5L520.4,248.5z M519.5,248.4
					c0-0.2,0-0.5-0.1-0.7c0-0.2-0.1-0.4-0.2-0.6c-0.1-0.2-0.3-0.3-0.4-0.4c-0.2-0.1-0.4-0.2-0.6-0.1c-0.2,0-0.5,0.1-0.7,0.2
					c-0.2,0.1-0.3,0.3-0.4,0.5v2.4c0.1,0.2,0.3,0.4,0.4,0.5c0.2,0.1,0.4,0.2,0.7,0.2c0.2,0,0.4,0,0.6-0.1c0.2-0.1,0.3-0.2,0.4-0.4
					c0.1-0.2,0.2-0.4,0.2-0.6C519.5,249,519.5,248.7,519.5,248.4L519.5,248.4z"/>
			</g>
		</g>
		<g id="ff69fb83-2fa2-4514-887b-798f4a9aaa16">
			<g id="b600a5fe-6962-458a-be03-8ef1e999e2bf">
				<g id="b63678ba-d923-4387-b728-32068eba7225">
					<path d="M563.2,265.3h-17.9c-3.9,0-7-3.2-7-7v-17.9c0-3.9,3.2-7,7-7h17.9c3.9,0,7,3.2,7,7v17.9
						C570.3,262.2,567.1,265.3,563.2,265.3z M545.3,234.1c-3.5,0-6.3,2.8-6.3,6.3v17.9c0,3.5,2.8,6.3,6.3,6.3h17.9
						c3.5,0,6.3-2.8,6.3-6.3v-17.9c0-3.5-2.8-6.3-6.3-6.3L545.3,234.1z"/>
				</g>
				<path d="M549.9,250.9c0-0.1-0.1-0.2-0.1-0.2c0-0.1,0-0.2,0-0.3c-0.1,0.1-0.2,0.2-0.3,0.2c-0.1,0.1-0.2,0.1-0.3,0.2
					c-0.1,0.1-0.3,0.1-0.4,0.1c-0.1,0-0.3,0.1-0.5,0.1c-0.2,0-0.5,0-0.7-0.1c-0.2-0.1-0.4-0.2-0.5-0.3c-0.1-0.1-0.3-0.3-0.3-0.5
					c-0.1-0.2-0.1-0.4-0.1-0.6c0-0.2,0-0.5,0.2-0.7c0.1-0.2,0.3-0.4,0.5-0.5c0.2-0.1,0.5-0.2,0.7-0.3c0.3-0.1,0.6-0.1,0.9-0.1h0.9
					v-0.4c0-0.1,0-0.3-0.1-0.4c-0.1-0.1-0.1-0.2-0.2-0.3c-0.1-0.1-0.2-0.2-0.4-0.2c-0.2,0-0.3-0.1-0.5-0.1c-0.2,0-0.3,0-0.5,0.1
					c-0.1,0-0.2,0.1-0.3,0.2c-0.1,0.1-0.2,0.2-0.2,0.2c-0.1,0.1-0.1,0.2-0.1,0.3h-0.8c0-0.2,0.1-0.4,0.1-0.5
					c0.1-0.2,0.2-0.3,0.4-0.5c0.2-0.1,0.4-0.3,0.6-0.3c0.3-0.1,0.5-0.1,0.8-0.1c0.3,0,0.5,0,0.8,0.1c0.2,0.1,0.4,0.2,0.6,0.3
					c0.2,0.1,0.3,0.3,0.4,0.5c0.1,0.2,0.2,0.5,0.2,0.7v2.3c0,0.2,0,0.4,0,0.5c0,0.2,0.1,0.3,0.1,0.5v0.1L549.9,250.9z M548.4,250.3
					c0.2,0,0.3,0,0.5-0.1c0.1,0,0.3-0.1,0.4-0.2c0.1-0.1,0.2-0.1,0.3-0.2c0.1-0.1,0.1-0.2,0.2-0.3v-1H549c-0.4,0-0.8,0.1-1.2,0.2
					c-0.3,0.1-0.4,0.4-0.4,0.7c0,0.1,0,0.2,0.1,0.3c0,0.1,0.1,0.2,0.2,0.3c0.1,0.1,0.2,0.1,0.3,0.2
					C548.1,250.3,548.3,250.3,548.4,250.3L548.4,250.3z"/>
				<path d="M556.4,248.5c0,0.3,0,0.7-0.1,1c-0.1,0.3-0.2,0.6-0.4,0.8c-0.2,0.2-0.4,0.4-0.6,0.5c-0.3,0.1-0.5,0.2-0.8,0.2
					c-0.3,0-0.5,0-0.8-0.1c-0.2-0.1-0.4-0.2-0.6-0.4v2.4h-0.8V246h0.8l0,0.5c0.2-0.2,0.4-0.4,0.6-0.5c0.3-0.1,0.5-0.2,0.8-0.2
					c0.3,0,0.6,0.1,0.8,0.2c0.2,0.1,0.5,0.3,0.6,0.5c0.2,0.2,0.3,0.5,0.4,0.8C556.4,247.7,556.4,248.1,556.4,248.5L556.4,248.5z
					 M555.6,248.4c0-0.2,0-0.5-0.1-0.7c0-0.2-0.1-0.4-0.2-0.6c-0.1-0.2-0.3-0.3-0.4-0.4c-0.2-0.1-0.4-0.2-0.6-0.1
					c-0.2,0-0.5,0.1-0.7,0.2c-0.2,0.1-0.3,0.3-0.4,0.5v2.4c0.1,0.2,0.3,0.4,0.4,0.5c0.2,0.1,0.5,0.2,0.7,0.2c0.2,0,0.4,0,0.6-0.1
					c0.2-0.1,0.3-0.2,0.4-0.4c0.1-0.2,0.2-0.4,0.2-0.6C555.6,249,555.6,248.7,555.6,248.4L555.6,248.4z"/>
				<path d="M562,248.5c0,0.3,0,0.7-0.1,1c-0.1,0.3-0.2,0.6-0.4,0.8c-0.3,0.5-0.9,0.7-1.4,0.7c-0.3,0-0.5,0-0.8-0.1
					c-0.2-0.1-0.4-0.2-0.6-0.4v2.4h-0.8V246h0.8l0,0.5c0.2-0.2,0.4-0.4,0.6-0.5c0.3-0.1,0.5-0.2,0.8-0.2c0.3,0,0.6,0.1,0.8,0.2
					c0.2,0.1,0.5,0.3,0.6,0.5c0.2,0.2,0.3,0.5,0.4,0.8C562,247.7,562.1,248.1,562,248.5L562,248.5z M561.2,248.4
					c0-0.2,0-0.5-0.1-0.7c0-0.2-0.1-0.4-0.2-0.6c-0.1-0.2-0.3-0.3-0.4-0.4c-0.2-0.1-0.4-0.2-0.6-0.1c-0.2,0-0.5,0.1-0.7,0.2
					c-0.2,0.1-0.3,0.3-0.4,0.5v2.4c0.1,0.2,0.3,0.4,0.4,0.5c0.2,0.1,0.4,0.2,0.7,0.2c0.2,0,0.4,0,0.6-0.1c0.2-0.1,0.3-0.2,0.4-0.4
					c0.1-0.2,0.2-0.4,0.2-0.6C561.2,249,561.2,248.7,561.2,248.4L561.2,248.4z"/>
			</g>
		</g>
		<g id="b3646773-cee8-4606-b15b-449be3cc8e5e">
			<g id="bbe6ef4e-54e2-4024-9383-42a2821c1842">
				<path d="M472.2,264.1L472.2,264.1c8.8,0,16-7.1,16-15.8s-7.1-15.9-15.8-15.9l0,0h-0.1c-8.8,0-15.9,7.1-15.9,15.8
					C456.4,256.9,463.5,264,472.2,264.1z M472.3,233.1L472.3,233.1c8.4,0,15.2,6.8,15.1,15.1s-6.8,15.1-15.1,15.1l0,0h-0.1
					c-8.3,0-15.1-6.8-15.1-15.1C457.2,239.8,464,233.1,472.3,233.1L472.3,233.1L472.3,233.1z"/>
				<path d="M473.4,248.2c0,0.1,0,0.2,0.1,0.3l3.9,3.9c0.1,0.2,0.4,0.2,0.5,0s0.2-0.4,0-0.5c0,0,0,0,0,0l-3.3-3.2h9.8
					c0.2,0,0.4-0.2,0.4-0.4c0-0.2-0.2-0.4-0.4-0.4h-9.8l3.3-3.2c0.2-0.1,0.2-0.4,0-0.5c-0.1-0.2-0.4-0.2-0.5,0c0,0,0,0,0,0l-3.9,3.9
					C473.5,248,473.4,248.1,473.4,248.2z"/>
				<path d="M466.6,251.8c-0.2,0.1-0.2,0.4,0,0.5c0.1,0.2,0.4,0.2,0.5,0l0,0c0,0,0,0,0,0l3.9-3.9c0.2-0.2,0.2-0.4,0-0.5l0,0
					l-3.9-3.9c-0.2-0.1-0.4-0.1-0.5,0c-0.1,0.1-0.1,0.4,0,0.5l3.3,3.2h-9.8c-0.2,0-0.4,0.2-0.4,0.4c0,0.2,0.2,0.4,0.4,0.4l0,0h9.8
					L466.6,251.8z"/>
				<path d="M475.9,256.4l-3.2,3.3v-10c0-0.2-0.2-0.4-0.4-0.4c-0.2,0-0.4,0.2-0.4,0.4v10l-3.2-3.3c-0.1-0.2-0.4-0.2-0.5,0
					c-0.2,0.1-0.2,0.4,0,0.5c0,0,0,0,0,0l0,0l3.9,4c0.2,0.2,0.4,0.2,0.5,0h0l3.9-4c0.2-0.2,0.2-0.4,0-0.5
					C476.3,256.3,476.1,256.3,475.9,256.4L475.9,256.4z"/>
				<path d="M468.7,239.9l3.2-3.3v10c0,0.2,0.2,0.4,0.4,0.4c0.2,0,0.4-0.2,0.4-0.4c0,0,0,0,0,0v-10l3.2,3.3c0.1,0.2,0.4,0.2,0.5,0
					c0.2-0.1,0.2-0.4,0-0.5l-3.9-4c-0.2-0.1-0.4-0.1-0.6,0l-3.9,4c-0.2,0.2-0.2,0.4,0,0.5C468.3,240.1,468.6,240.1,468.7,239.9
					L468.7,239.9L468.7,239.9z"/>
			</g>
		</g>
		<path d="M473.2,328.5c-0.1-1.8,1.4-3.4,3.2-3.4c0.1,0,0.1,0,0.2,0c1,0,2,0.5,2.6,1.3l-0.7,0.4c-0.4-0.6-1.1-1-1.9-1
			c-1.5,0.1-2.6,1.4-2.5,2.9c0.1,1.4,1.2,2.4,2.5,2.5c0.7,0,1.4-0.4,1.9-1l0.7,0.4c-0.6,0.8-1.5,1.3-2.6,1.3c-1.8,0-3.4-1.4-3.4-3.3
			C473.2,328.7,473.2,328.6,473.2,328.5z"/>
		<path d="M483.5,331.9v-0.7c-0.4,0.5-1.1,0.8-1.7,0.8c-0.7,0.1-1.4-0.4-1.5-1.1c0-0.1,0-0.3,0-0.4V327h0.7v3.2
			c0,0.8,0.4,1.1,1.1,1.1c0.6,0,1.1-0.3,1.4-0.7V327h0.8v4.8L483.5,331.9z"/>
		<path d="M485.7,330.7c0.4,0.4,1,0.7,1.6,0.7c0.7,0,1.1-0.3,1.1-0.8c0-0.5-0.6-0.7-1.2-0.9c-0.8-0.2-1.7-0.4-1.7-1.4
			c0-0.8,0.6-1.4,1.8-1.4c0.7,0,1.3,0.2,1.8,0.7l-0.4,0.5c-0.4-0.4-0.9-0.6-1.4-0.6c-0.7,0-1.1,0.3-1.1,0.7c0,0.5,0.5,0.6,1.2,0.8
			c0.8,0.2,1.8,0.4,1.8,1.5c0,0.8-0.6,1.5-1.9,1.5c-0.7,0-1.4-0.2-1.9-0.8L485.7,330.7z"/>
		<path d="M490.6,330.8v-3.2h-0.8V327h0.8v-1.3h0.8v1.3h1v0.7h-1v3c0,0.4,0.2,0.6,0.5,0.6c0.2,0,0.4-0.1,0.5-0.2l0.2,0.6
			c-0.2,0.2-0.6,0.3-0.9,0.3c-0.5,0.1-1-0.3-1.1-0.9C490.5,331,490.5,330.9,490.6,330.8z"/>
		<path d="M493.1,329.4c0.1-1.3,1.2-2.3,2.5-2.2s2.3,1.2,2.2,2.5c-0.1,1.3-1.1,2.2-2.4,2.2c-1.3,0-2.4-1-2.4-2.3
			C493.1,329.6,493.1,329.5,493.1,329.4z M497,329.4c-0.1-0.9-1-1.5-1.8-1.4c-0.9,0.1-1.5,1-1.4,1.8c0.1,0.8,0.8,1.4,1.6,1.4
			c0.9,0,1.6-0.8,1.6-1.7C497.1,329.5,497.1,329.5,497,329.4z"/>
		<path d="M504.9,331.9v-3.3c0-0.6-0.3-1-0.9-1c-0.5,0-1,0.3-1.3,0.7v3.5H502v-3.3c0-0.6-0.3-1-0.9-1c-0.5,0-1,0.3-1.3,0.8v3.5h-0.7
			V327h0.7v0.7c0.4-0.5,0.9-0.8,1.6-0.8c0.6-0.1,1.1,0.3,1.3,0.9c0.4-0.5,1-0.9,1.6-0.9c0.9,0,1.4,0.5,1.4,1.5v3.5L504.9,331.9z"/>
		<path d="M509.2,326.9c1.3,0,2.3,1.1,2.3,2.4c0,0.1,0,0.2,0,0.2v0.2h-3.9c0,0.9,0.8,1.7,1.7,1.7c0,0,0,0,0,0c0.6,0,1.1-0.2,1.5-0.6
			l0.4,0.5c-0.5,0.5-1.2,0.8-1.9,0.7c-1.4,0-2.5-1.2-2.4-2.6C506.9,328,507.9,327,509.2,326.9L509.2,326.9z M507.7,329.1h3.2
			c0-0.9-0.7-1.6-1.5-1.6c0,0,0,0-0.1,0C508.4,327.5,507.6,328.3,507.7,329.1L507.7,329.1z"/>
		<path d="M512.8,331.9V327h0.7v0.8c0.4-0.5,1-0.9,1.6-0.9v0.8c-0.1,0-0.2,0-0.3,0c-0.5,0-1,0.3-1.3,0.8v3.4L512.8,331.9z"/>
		<path d="M518.4,328.5c-0.1-1.8,1.4-3.4,3.2-3.4c0.1,0,0.1,0,0.2,0c1,0,2,0.5,2.6,1.3l-0.7,0.4c-0.4-0.6-1.1-1-1.9-1
			c-1.5,0.1-2.6,1.4-2.5,2.9c0.1,1.4,1.2,2.4,2.5,2.5c0.7,0,1.4-0.4,1.9-1l0.7,0.4c-0.6,0.8-1.5,1.3-2.6,1.3c-1.8,0-3.4-1.4-3.4-3.3
			C518.4,328.7,518.4,328.6,518.4,328.5z"/>
		<path d="M525.4,331.9v-6.7h0.7v6.7H525.4z"/>
		<path d="M527.4,329.4c0.1-1.3,1.2-2.3,2.5-2.2c1.3,0.1,2.3,1.2,2.2,2.5c-0.1,1.3-1.1,2.2-2.4,2.2c-1.3,0-2.4-1-2.4-2.3
			C527.4,329.6,527.4,329.5,527.4,329.4z M531.4,329.4c-0.1-0.9-1-1.5-1.8-1.4c-0.9,0.1-1.5,1-1.4,1.8c0.1,0.8,0.8,1.4,1.6,1.4
			c0.9,0,1.6-0.8,1.6-1.7C531.4,329.5,531.4,329.5,531.4,329.4z"/>
		<path d="M536.6,331.9v-0.7c-0.4,0.5-1.1,0.8-1.7,0.8c-0.7,0.1-1.4-0.4-1.5-1.1c0-0.1,0-0.3,0-0.4V327h0.7v3.2
			c0,0.8,0.4,1.1,1.1,1.1c0.6,0,1.1-0.3,1.4-0.7V327h0.8v4.8L536.6,331.9z"/>
		<path d="M542.4,331.9v-0.7c-0.4,0.5-1,0.8-1.6,0.8c-1.3,0-2.1-1-2.1-2.5c0-1.5,0.9-2.5,2.1-2.5c0.6,0,1.3,0.3,1.6,0.8v-2.6h0.7
			v6.7L542.4,331.9z M542.4,328.4c-0.3-0.5-0.9-0.8-1.5-0.8c-1,0-1.5,0.8-1.5,1.9s0.6,1.9,1.5,1.9c0.6,0,1.1-0.3,1.5-0.8V328.4z"/>
		<path d="M545.7,333.8c-1.9-2.6-1.9-6.2,0-8.8l0.5,0.3c-1.4,2.5-1.4,5.6,0,8.1L545.7,333.8z"/>
		<path d="M547.1,330.7c0.4,0.4,1,0.7,1.6,0.7c0.7,0,1.1-0.3,1.1-0.8c0-0.5-0.6-0.7-1.2-0.9c-0.8-0.2-1.7-0.4-1.7-1.4
			c0-0.8,0.7-1.4,1.8-1.4c0.7,0,1.3,0.2,1.8,0.7l-0.3,0.5c-0.4-0.4-0.9-0.6-1.4-0.6c-0.7,0-1.1,0.3-1.1,0.7c0,0.5,0.5,0.6,1.2,0.8
			c0.8,0.2,1.8,0.4,1.8,1.5c0,0.8-0.7,1.5-1.9,1.5c-0.7,0-1.4-0.2-1.9-0.8L547.1,330.7z"/>
		<path d="M551.2,325.3l0.5-0.3c1.9,2.6,1.9,6.2,0,8.8l-0.5-0.3C552.6,331,552.6,327.9,551.2,325.3z"/>
		<path d="M467.1,300.2l-0.6-1.5h-3.4l-0.6,1.5h-0.9l2.7-6.7h1l2.7,6.7H467.1z M464.9,294.3l-1.4,3.7h2.9L464.9,294.3z"/>
		<path d="M473.6,300.2l-1.5-5.4l-1.5,5.4h-0.9l-1.9-6.7h0.9l1.5,5.6l1.5-5.6h0.7l1.5,5.6l1.5-5.6h0.9l-1.9,6.7H473.6z"/>
		<path d="M477.4,298.6c0.5,0.6,1.3,0.9,2.1,0.9c1.2,0,1.6-0.6,1.6-1.1c0-0.8-0.8-1-1.7-1.3c-1.1-0.3-2.3-0.6-2.3-1.9
			c0-1.1,1-1.8,2.3-1.8c0.9,0,1.7,0.3,2.4,0.9l-0.5,0.6c-0.5-0.5-1.2-0.8-1.9-0.8c-0.8,0-1.4,0.4-1.4,1.1c0,0.7,0.8,0.9,1.6,1.1
			c1.1,0.3,2.3,0.6,2.3,2c0,1-0.7,2-2.5,2c-1,0-1.9-0.3-2.6-1.1L477.4,298.6z"/>
		<path d="M498.3,300.2l-0.6-1.5h-3.4l-0.6,1.5h-0.9l2.7-6.7h1l2.7,6.7H498.3z M496,294.3l-1.4,3.7h2.9L496,294.3z"/>
		<path d="M499.8,300.2v-0.6l2.7-3.6h-2.7v-0.7h3.6v0.6l-2.7,3.6h2.7v0.6H499.8z"/>
		<path d="M508,300.2v-0.7c-0.4,0.5-1.1,0.8-1.7,0.8c-0.7,0.1-1.4-0.4-1.5-1.1c0-0.1,0-0.3,0-0.4v-3.4h0.7v3.2
			c0,0.9,0.4,1.1,1.1,1.1c0.6,0,1.1-0.3,1.4-0.7v-3.5h0.8v4.8L508,300.2z"/>
		<path d="M510.3,300.2v-4.8h0.7v0.8c0.4-0.5,1-0.9,1.6-0.9v0.8c-0.1,0-0.2,0-0.3,0c-0.5,0-1,0.3-1.3,0.8v3.4H510.3z"/>
		<path d="M515.7,295.3c1.3,0,2.3,1.1,2.3,2.4c0,0.1,0,0.2,0,0.2v0.2h-3.9c0,0.9,0.8,1.7,1.7,1.7c0,0,0,0,0,0c0.6,0,1.1-0.2,1.5-0.6
			l0.4,0.5c-0.5,0.5-1.2,0.8-1.9,0.7c-1.4,0-2.5-1.2-2.4-2.6C513.3,296.4,514.4,295.3,515.7,295.3L515.7,295.3z M514.1,297.5h3.2
			c0-0.9-0.7-1.6-1.5-1.6c0,0,0,0-0.1,0C514.8,295.9,514.1,296.6,514.1,297.5z"/>
		<path d="M540.4,300.2v-3.2c0-0.8-0.4-1.1-1.1-1.1c-0.6,0-1.1,0.3-1.4,0.7v3.5h-0.7v-4.8h0.7v0.7c0.4-0.5,1.1-0.8,1.7-0.8
			c0.8-0.1,1.4,0.4,1.5,1.2c0,0.1,0,0.3,0,0.4v3.4L540.4,300.2z"/>
		<path d="M542.2,298.1v-0.7h2.4v0.7H542.2z"/>
		<path d="M545.7,300.2v-6.7h2.7c1.1,0,2,0.8,2.1,1.9c0,1.1-0.8,2-1.9,2.1c-0.1,0-0.1,0-0.2,0h-1.8v2.6L545.7,300.2z M548.3,294.3
			h-1.8v2.5h1.8c0.7,0,1.3-0.5,1.3-1.2c0-0.7-0.5-1.3-1.2-1.3C548.4,294.3,548.3,294.3,548.3,294.3z"/>
		<path d="M551.5,300.2v-4.8h0.7v0.8c0.4-0.5,1-0.9,1.6-0.9v0.8c-0.1,0-0.2,0-0.3,0c-0.5,0-1,0.3-1.3,0.8v3.4H551.5z"/>
		<path d="M556.9,295.3c1.3,0,2.3,1.1,2.3,2.4c0,0.1,0,0.2,0,0.2v0.2h-3.9c0,0.9,0.8,1.7,1.7,1.7c0,0,0,0,0,0c0.6,0,1.1-0.2,1.5-0.6
			l0.4,0.5c-0.5,0.5-1.2,0.8-1.9,0.7c-1.4,0-2.5-1.2-2.4-2.6C554.6,296.4,555.6,295.3,556.9,295.3z M555.3,297.5h3.2
			c0-0.9-0.7-1.6-1.5-1.6c0,0,0,0-0.1,0C556,295.9,555.3,296.6,555.3,297.5L555.3,297.5z"/>
		<path d="M566.3,300.2v-3.3c0-0.6-0.3-1-0.9-1c-0.5,0-1,0.3-1.3,0.7v3.5h-0.7v-3.3c0-0.6-0.3-1-0.9-1c-0.5,0-1,0.3-1.3,0.7v3.5
			h-0.7v-4.8h0.7v0.7c0.4-0.5,0.9-0.8,1.6-0.8c0.6-0.1,1.1,0.3,1.3,0.9c0.4-0.5,1-0.9,1.6-0.9c0.9,0,1.3,0.5,1.3,1.5v3.5
			L566.3,300.2z"/>
		<path d="M571.1,308.8h-116c-0.3,0-0.5-0.2-0.5-0.5s0.2-0.5,0.5-0.5h116c0.3,0,0.5,0.2,0.5,0.5S571.4,308.8,571.1,308.8z"/>
		<path d="M513.1,319.6c-0.3,0-0.5-0.2-0.5-0.5v-10.8c0-0.3,0.2-0.5,0.5-0.5s0.5,0.2,0.5,0.5v10.8
			C513.6,319.4,513.4,319.6,513.1,319.6z"/>
		<polygon class="st8" points="204.8,186 173.9,185.8 173.9,135.7 82.8,135.7 82.8,134.7 174.9,134.7 174.9,184.8 204.8,185 		"/>
		<polygon class="st3" points="173.4,248 82.6,247.1 82.6,246.1 172.4,247 172.4,195.1 209.3,194.9 209.3,195.9 173.4,196.1 		"/>
		<path class="st3" d="M317.8,186c-0.3,0-0.5-0.2-0.5-0.5s0.2-0.5,0.5-0.5h33.1v-48.9l91.3-0.2l0,0c0.3,0,0.5,0.2,0.5,0.5
			s-0.2,0.5-0.5,0.5l-90.3,0.2V186L317.8,186z"/>
		<rect x="88.6" y="176.1" class="st8" width="86" height="1"/>
		<g id="b5830d15-c283-4850-8e56-80337a1cb542">
			<g id="e76f24fd-e5e6-46a0-bec0-6a3131917e57">
				<path d="M54.7,258C54.7,258,54.7,258,54.7,258c0.3,0,0.4-0.1,0.4-0.3l2.5-10.9c0.3-0.9,0.9-1.8,1.7-2.3c2.2-1.2,4.5-2.1,7-2.5
					c2,1.6,4.8,1.6,6.9,0c2.4,0.4,4.8,1.3,7,2.5c0.8,0.5,1.5,1.3,1.7,2.2l2.5,10.9c0,0.2,0.2,0.3,0.4,0.3c0,0,0.1,0,0.1,0
					c0.2,0,0.3-0.2,0.3-0.4l-2.5-10.9c-0.3-1.1-1.1-2.1-2.1-2.7c-2.1-1.2-4.3-2-6.6-2.5c2.2-2.1,3.3-5.1,3.2-8.1
					c0-4.8-2.7-7.6-7.4-7.6s-7.4,2.8-7.4,7.6c-0.1,3,1.1,6,3.2,8.1c-2.3,0.5-4.5,1.3-6.6,2.5c-1,0.6-1.7,1.6-2.1,2.7l-2.5,10.9
					C54.3,257.8,54.5,258,54.7,258C54.7,258,54.7,258,54.7,258z M63,233.4c0-5.9,4.2-6.8,6.7-6.8s6.7,0.9,6.7,6.8
					c0,3.4-1.4,6.4-3.5,8l0,0c-1.8,1.5-4.4,1.5-6.3,0l0,0C64.4,239.8,63,236.7,63,233.4z"/>
			</g>
		</g>
		<g id="ea99fa55-7554-4113-9fb3-ec11717e556d">
			<g id="a65972fe-bde3-4b39-a259-b66b65018470">
				<path d="M64.9,131c0.1,0,0.1,0.1,0.2,0.1c0.2,0,0.3-0.1,0.4-0.2c0,0,0.1-0.1,0.2-0.3l1.7,4.1c0.5,1.1,1.6,1.8,2.8,1.8h0.7
					c1.2,0,2.3-0.7,2.8-1.8c0,0,0,0,0,0l1.7-4.2c0.1,0.1,0.2,0.3,0.3,0.4c0.1,0.2,0.4,0.3,0.6,0.2c0.2-0.1,0.3-0.3,0.2-0.5
					c-1.2-2.1-3.5-3.3-5.9-3.2c-2.3,0-4.5,1.2-5.7,3.2C64.6,130.6,64.7,130.8,64.9,131C64.9,131,64.9,131,64.9,131L64.9,131z
					 M70.4,128c1.6,0,3.1,0.5,4.2,1.6l-1.9,4.6l0,0c-0.3,0.8-1.1,1.3-2,1.3h-0.7c-0.9,0-1.7-0.5-2-1.3l-1.8-4.5
					C67.3,128.6,68.8,128,70.4,128z"/>
				<path d="M55.8,151.3l2.2,0.8c0.5,0.2,0.8,0.3,1,0.4c0.2,0.3,0.5,0.6,0.9,0.7c0,0,0.1,0,0.1,0l0.1,0h20.8c0,0,0.1,0,0.1,0
					c0.4-0.1,0.8-0.5,1-0.9l3.1-1c1.9-0.7,2.9-2.7,2.4-4.6l-2.9-9.7c-0.3-1-0.9-1.8-1.8-2.4l-3.5-2.1l0.5-1.2
					c0.3-0.9,0.2-1.9-0.3-2.8l-4.4-7c-1-1.6-2.7-2.6-4.6-2.6h0c-1.9,0-3.7,1-4.6,2.6l-4.4,7c-0.5,0.8-0.6,1.9-0.3,2.8l0.5,1.2
					l-3.5,2.1c-0.9,0.5-1.5,1.4-1.8,2.4l-2.9,9.7C52.9,148.6,53.9,150.6,55.8,151.3z M80.8,152.4H60.1c-0.1,0-0.4-0.2-0.4-0.4
					c0-0.2,0.3-0.3,0.4-0.4h20.7c0.1,0.1,0.4,0.2,0.4,0.4S81,152.3,80.8,152.4L80.8,152.4z M80.5,138.8v11.9h-20v-11.9L80.5,138.8z
					 M82.4,135.3c0.7,0.4,1.2,1.1,1.5,1.9l2.9,9.7c0.4,1.5-0.4,3.1-1.8,3.6l-3,0.9c-0.1-0.2-0.4-0.4-0.6-0.6v-12.5
					c0-0.2-0.2-0.4-0.4-0.4c0,0,0,0,0,0h-5.1l1.7-1.6c0.1-0.1,0.2-0.2,0.2-0.3l1.2-2.8L82.4,135.3z M62.2,128.9l4.4-7
					c0.8-1.4,2.3-2.2,3.9-2.2h0c1.6,0,3.1,0.9,3.9,2.2l4.4,7c0.4,0.6,0.4,1.4,0.2,2l-2.1,4.8l-2.3,2.2h-8.3l-2.3-2.3l-2-4.8
					C61.7,130.3,61.8,129.5,62.2,128.9L62.2,128.9z M54.3,146.9l2.9-9.7c0.2-0.8,0.8-1.5,1.5-1.9l3.4-2.1l1.2,2.8
					c0.1,0.1,0.1,0.2,0.2,0.3l1.7,1.6H60c-0.2,0-0.4,0.2-0.4,0.4c0,0,0,0,0,0v12.5c-0.3,0.1-0.5,0.4-0.7,0.7
					c-0.1-0.1-0.3-0.1-0.6-0.2l-2.2-0.8C54.6,150,53.8,148.4,54.3,146.9L54.3,146.9z"/>
			</g>
		</g>
		<g id="aa8e0be4-100a-4154-ade6-77779b8e5bee">
			<g id="f2388f95-832a-44f3-b729-8281d1059842">
				<path d="M86.9,186.5c0.9,0,1.6-0.7,1.6-1.6c0,0,0,0,0,0v-11.5c0-0.9-0.7-1.7-1.6-1.7c0,0,0,0,0,0c0,0,0,0,0,0
					c-0.9,0-1.6,0.8-1.7,1.7v11.5C85.3,185.8,86,186.5,86.9,186.5z M86.2,173.4c0-0.4,0.3-0.7,0.8-0.8c0.4,0,0.7,0.3,0.8,0.7
					c0,0,0,0,0,0v11.5c0,0.4-0.3,0.8-0.7,0.8c0,0,0,0,0,0c0,0,0,0,0,0c-0.4,0-0.7-0.4-0.8-0.8V173.4z"/>
				<path d="M53.3,186.5c0.9,0,1.6-0.7,1.7-1.6c0,0,0,0,0,0v-11.5c0-0.9-0.7-1.7-1.6-1.7c-0.9,0-1.7,0.7-1.7,1.6v11.6
					C51.6,185.8,52.4,186.5,53.3,186.5L53.3,186.5z M52.6,173.4c0-0.4,0.3-0.8,0.7-0.8s0.8,0.3,0.8,0.7c0,0,0,0,0,0.1v11.5
					c0,0.4-0.3,0.8-0.7,0.8s-0.8-0.3-0.8-0.7c0,0,0,0,0-0.1V173.4z"/>
				<path d="M75.8,180c2.8,0,5-2.3,4.9-5.1c0-2.7-2.2-4.9-4.9-4.9c-2.7,0-4.9,2.2-4.9,4.9c0,0,0,0.1,0,0.1c0,2.7,2.1,4.9,4.8,5
					L75.8,180z M75.8,170.8c2.3,0,4.1,1.8,4.2,4c0,2.3-1.8,4.1-4,4.2c-2.3,0-4.1-1.8-4.2-4c0-0.1,0-0.1,0-0.2
					C71.9,172.7,73.6,170.9,75.8,170.8z"/>
				<path d="M62.8,189c0.6,0.7,1.6,0.9,2.3,0.3c0.1-0.1,0.2-0.2,0.3-0.3l2.7-3.4l2.7,3.3c0.3,0.4,0.8,0.7,1.3,0.6
					c0.5,0,1-0.2,1.3-0.6l2.8-3.4l2.7,3.3c0.3,0.4,0.8,0.6,1.3,0.6c0.4,0,0.8-0.1,1.1-0.4c0.7-0.6,0.8-1.6,0.3-2.3l-4.1-4.9
					c-0.3-0.4-0.7-0.6-1.2-0.6c-0.5,0-1,0.2-1.3,0.6l-2.8,3.4l-2.8-3.3c-0.3-0.4-0.8-0.7-1.3-0.6l0,0c-0.5,0-1,0.2-1.3,0.6l-2.8,3.4
					l-2.7-3.3c-0.2-0.4-0.6-0.6-1.1-0.6c-0.4-0.1-0.9,0.1-1.2,0.4c-0.3,0.3-0.6,0.6-0.6,1.1c-0.1,0.5,0.1,0.9,0.4,1.3L62.8,189z
					 M59.6,182.4c0.1-0.1,0.3-0.2,0.5-0.2c0,0,0.1,0,0.1,0c0.2,0,0.4,0.1,0.5,0.3l3.5,4.2l3.5-4.2c0.3-0.3,0.7-0.4,1.1-0.1
					c0,0,0.1,0.1,0.1,0.1l3.5,4.2l3.4-4.2c0.2-0.2,0.4-0.3,0.6-0.3c0.2,0,0.4,0.1,0.5,0.3l4.1,4.9c0.3,0.3,0.2,0.8-0.1,1.1l-0.1,0
					c-0.1,0.1-0.3,0.2-0.4,0.2c-0.2,0-0.4-0.1-0.6-0.3l-3.5-4.2l-3.5,4.2c-0.1,0.2-0.3,0.3-0.5,0.3c-0.2,0-0.5-0.1-0.6-0.3l-3.5-4.2
					l-3.4,4.2c-0.3,0.3-0.8,0.4-1.1,0.1c0,0-0.1-0.1-0.1-0.1l-4-4.9c-0.1-0.2-0.2-0.4-0.2-0.6C59.3,182.7,59.4,182.5,59.6,182.4z"/>
				<path d="M64.4,180c2.8,0,5-2.2,5-5c0-2.8-2.2-5-5-5c-2.8,0-5,2.2-5,5v0C59.4,177.7,61.6,179.9,64.4,180L64.4,180z M64.4,170.8
					c2.3,0,4.1,1.8,4.1,4.1c0,2.3-1.8,4.1-4.1,4.1c-2.3,0-4.1-1.8-4.1-4.1c0,0,0,0,0,0v0C60.3,172.7,62.1,170.9,64.4,170.8
					L64.4,170.8z"/>
				<path d="M58.4,193h23.3c1.3,0,2.4-1.1,2.4-2.4c0,0,0,0,0,0l0.1-23c0-1.3-1.1-2.4-2.4-2.4H58.5c-1.3,0-2.4,1.1-2.4,2.4l-0.1,23
					C56,191.9,57.1,193,58.4,193z M57,167.6c0-0.8,0.7-1.5,1.5-1.5h23.3c0.8,0,1.5,0.7,1.5,1.5l-0.1,23c0,0.8-0.7,1.5-1.5,1.5H58.4
					c-0.8,0-1.5-0.7-1.5-1.5L57,167.6z"/>
			</g>
		</g>
		<circle class="st8" cx="203.1" cy="185.6" r="4.2"/>
		<path class="st6" d="M204.6,187.9l-1.5-2l-1.5,2h-0.7l1.8-2.4l-1.7-2.3h0.7l1.4,1.9l1.4-1.9h0.7l-1.7,2.3l1.8,2.4L204.6,187.9z"/>
		<path class="st3" d="M233.6,186c-0.3,0-0.5-0.2-0.5-0.5s0.2-0.5,0.5-0.5h18.2c0.3,0,0.5,0.2,0.5,0.5s-0.2,0.5-0.5,0.5H233.6z"/>
		<path class="st3" d="M236.7,196c-0.3,0-0.5-0.2-0.5-0.5s0.2-0.5,0.5-0.5h12c0.3,0,0.5,0.2,0.5,0.5s-0.2,0.5-0.5,0.5H236.7z"/>
		<path class="st3" d="M279.3,196c-0.3,0-0.5-0.2-0.5-0.5s0.2-0.5,0.5-0.5h11.3c0.3,0,0.5,0.2,0.5,0.5s-0.2,0.5-0.5,0.5H279.3z"/>
		<path class="st3" d="M276.6,186c-0.3,0-0.5-0.2-0.5-0.5s0.2-0.5,0.5-0.5h16.6c0.3,0,0.5,0.2,0.5,0.5s-0.2,0.5-0.5,0.5H276.6z"/>
		<path class="st7" d="M221.9,203.4c-0.3,0-0.5-0.2-0.5-0.5v-13.6c0-0.2,0.1-0.3,0.2-0.4l11.7-6.8c0.2-0.1,0.5-0.1,0.7,0.2
			c0,0.1,0.1,0.2,0.1,0.3v6.3c0,0.3-0.2,0.5-0.5,0.5s-0.5-0.2-0.5-0.5v-5.4l-10.7,6.2V202l5.9-3.4c0.2-0.1,0.5-0.1,0.7,0.2
			s0.1,0.5-0.2,0.7l-6.6,3.8C222.1,203.4,222,203.4,221.9,203.4z"/>
		<path class="st7" d="M221.9,203.4c-0.1,0-0.2,0-0.2-0.1l-7-4c-0.2-0.1-0.3-0.4-0.2-0.7c0.1-0.2,0.4-0.3,0.7-0.2l6.2,3.5v-12.5
			l-10.8-6.3v6c0,0.3-0.2,0.5-0.5,0.5s-0.5-0.2-0.5-0.5v-6.8c0-0.3,0.2-0.5,0.5-0.5c0.1,0,0.2,0,0.3,0.1l11.8,6.9
			c0.2,0.1,0.2,0.3,0.2,0.4v13.6C222.4,203.2,222.2,203.4,221.9,203.4L221.9,203.4z"/>
		<path class="st7" d="M221.9,189.8c-0.1,0-0.2,0-0.3-0.1l-11.8-6.9c-0.2-0.1-0.3-0.4-0.2-0.7c0-0.1,0.1-0.1,0.2-0.2l6-3.5
			c0.2-0.1,0.5-0.1,0.7,0.2c0.1,0.2,0.1,0.5-0.2,0.7c0,0,0,0,0,0l-5.2,3l10.8,6.3l10.8-6.3l-5.7-3.3c-0.2-0.1-0.3-0.4-0.2-0.7
			c0.1-0.2,0.4-0.3,0.7-0.2c0,0,0,0,0,0l6.4,3.7c0.2,0.1,0.3,0.4,0.2,0.7c0,0.1-0.1,0.1-0.2,0.2l-11.8,6.8
			C222,189.8,221.9,189.8,221.9,189.8z"/>
		<path class="st7" d="M212.9,200.6c-0.3,0-0.5-0.2-0.5-0.5v-6c0-0.2,0.1-0.3,0.2-0.4l5.6-3.2c0.2-0.1,0.5-0.1,0.7,0.2
			c0,0.1,0.1,0.2,0.1,0.3v6.1c0,0.2-0.1,0.3-0.3,0.4l-5.6,3.2C213,200.6,213,200.6,212.9,200.6z M213.4,194.4v4.9l4.6-2.6v-4.9
			L213.4,194.4z"/>
		<path class="st7" d="M212.9,200.6c-0.1,0-0.2,0-0.2-0.1l-5.6-3.2c-0.2-0.1-0.3-0.3-0.3-0.4v-6.1c0-0.3,0.2-0.5,0.5-0.5
			c0.1,0,0.2,0,0.3,0.1l5.6,3.3c0.2,0.1,0.2,0.3,0.2,0.4v6C213.4,200.4,213.1,200.6,212.9,200.6L212.9,200.6z M207.8,196.7l4.6,2.6
			v-4.9l-4.6-2.7V196.7z"/>
		<path class="st7" d="M212.9,194.6c-0.1,0-0.2,0-0.3-0.1l-5.6-3.3c-0.2-0.1-0.3-0.4-0.2-0.7c0-0.1,0.1-0.1,0.2-0.2l5.5-3.2
			c0.2-0.1,0.3-0.1,0.5,0l5.6,3.2c0.2,0.1,0.3,0.4,0.2,0.7c0,0.1-0.1,0.1-0.2,0.2l-5.6,3.2C213,194.6,213,194.6,212.9,194.6z
			 M208.3,190.9l4.6,2.7l4.6-2.7l-4.6-2.7L208.3,190.9z"/>
		<path class="st7" d="M230.9,200.6c-0.3,0-0.5-0.2-0.5-0.5v-6c0-0.2,0.1-0.3,0.2-0.4l5.6-3.2c0.2-0.1,0.5-0.1,0.7,0.2
			c0,0.1,0.1,0.2,0.1,0.3v6.1c0,0.2-0.1,0.3-0.3,0.4l-5.6,3.2C231.1,200.6,231,200.6,230.9,200.6z M231.4,194.4v4.9l4.6-2.6v-4.9
			L231.4,194.4z"/>
		<path class="st7" d="M230.9,200.6c-0.1,0-0.2,0-0.2-0.1l-5.6-3.2c-0.2-0.1-0.3-0.3-0.3-0.4v-6.1c0-0.3,0.2-0.5,0.5-0.5
			c0.1,0,0.2,0,0.3,0.1l5.6,3.3c0.2,0.1,0.2,0.3,0.2,0.4v6C231.4,200.4,231.2,200.6,230.9,200.6L230.9,200.6z M225.9,196.7l4.6,2.6
			v-4.9l-4.6-2.7V196.7z"/>
		<path class="st7" d="M230.9,194.6c-0.1,0-0.2,0-0.3-0.1l-5.6-3.3c-0.2-0.1-0.3-0.4-0.2-0.7c0-0.1,0.1-0.1,0.2-0.2l5.5-3.2
			c0.2-0.1,0.3-0.1,0.5,0l5.6,3.2c0.2,0.1,0.3,0.4,0.2,0.7c0,0.1-0.1,0.1-0.2,0.2l-5.6,3.2C231.1,194.6,231,194.6,230.9,194.6z
			 M226.4,190.9l4.6,2.7l4.6-2.7l-4.6-2.7L226.4,190.9z"/>
		<path class="st7" d="M221.7,185.8c-0.3,0-0.5-0.2-0.5-0.5v-6c0-0.2,0.1-0.3,0.2-0.4l5.6-3.2c0.2-0.1,0.5-0.1,0.7,0.2
			c0,0.1,0.1,0.2,0.1,0.3v6.1c0,0.2-0.1,0.3-0.3,0.4l-5.6,3.2C221.8,185.8,221.7,185.8,221.7,185.8z M222.2,179.6v4.9l4.6-2.6v-4.9
			L222.2,179.6z"/>
		<path class="st7" d="M221.7,185.8c-0.1,0-0.2,0-0.2-0.1l-5.6-3.2c-0.2-0.1-0.3-0.3-0.3-0.4v-6.1c0-0.3,0.2-0.5,0.5-0.5
			c0.1,0,0.2,0,0.3,0.1l5.6,3.3c0.2,0.1,0.2,0.3,0.2,0.4v6C222.2,185.6,221.9,185.8,221.7,185.8z M216.6,181.9l4.6,2.6v-4.9
			l-4.6-2.7V181.9z"/>
		<path class="st7" d="M221.7,179.8c-0.1,0-0.2,0-0.3-0.1l-5.6-3.3c-0.2-0.1-0.3-0.4-0.2-0.7c0-0.1,0.1-0.1,0.2-0.2l5.5-3.2
			c0.2-0.1,0.3-0.1,0.5,0l5.6,3.2c0.2,0.1,0.3,0.4,0.2,0.7c0,0.1-0.1,0.1-0.2,0.2l-5.6,3.2C221.8,179.8,221.7,179.8,221.7,179.8z
			 M217.1,176l4.6,2.7l4.6-2.7l-4.6-2.7L217.1,176z"/>
		<path class="st7" d="M264.1,203.4c-0.3,0-0.5-0.2-0.5-0.5v-13.6c0-0.2,0.1-0.3,0.2-0.4l11.7-6.8c0.2-0.1,0.5-0.1,0.7,0.2
			c0,0.1,0.1,0.2,0.1,0.3v6.3c0,0.3-0.2,0.5-0.5,0.5s-0.5-0.2-0.5-0.5v-5.4l-10.7,6.2V202l5.9-3.4c0.2-0.1,0.5-0.1,0.7,0.2
			s0.1,0.5-0.2,0.7l-6.6,3.8C264.3,203.4,264.2,203.4,264.1,203.4z"/>
		<path class="st7" d="M264.1,203.4c-0.1,0-0.2,0-0.2-0.1l-7-4c-0.2-0.1-0.3-0.4-0.2-0.7c0.1-0.2,0.4-0.3,0.7-0.2l6.2,3.5v-12.5
			l-10.8-6.3v6c0,0.3-0.2,0.5-0.5,0.5s-0.5-0.2-0.5-0.5v-6.8c0-0.3,0.2-0.5,0.5-0.5c0.1,0,0.2,0,0.3,0.1l11.8,6.9
			c0.2,0.1,0.2,0.3,0.2,0.4v13.6C264.6,203.2,264.4,203.4,264.1,203.4L264.1,203.4z"/>
		<path class="st7" d="M264.1,189.8c-0.1,0-0.2,0-0.3-0.1l-11.8-6.9c-0.2-0.1-0.3-0.4-0.2-0.7c0-0.1,0.1-0.1,0.2-0.2l6-3.5
			c0.2-0.1,0.5,0,0.7,0.2c0.1,0.2,0,0.5-0.2,0.7l-5.2,3l10.8,6.3l10.8-6.3l-5.7-3.3c-0.2-0.1-0.3-0.5-0.2-0.7
			c0.1-0.2,0.4-0.3,0.7-0.2l6.4,3.7c0.2,0.1,0.3,0.4,0.2,0.7c0,0.1-0.1,0.1-0.2,0.2l-11.8,6.8C264.3,189.8,264.2,189.8,264.1,189.8z
			"/>
		<path class="st7" d="M255.1,200.6c-0.3,0-0.5-0.2-0.5-0.5v-6c0-0.2,0.1-0.3,0.2-0.4l5.6-3.2c0.2-0.1,0.5-0.1,0.7,0.2
			c0,0.1,0.1,0.2,0.1,0.3v6.1c0,0.2-0.1,0.3-0.3,0.4l-5.6,3.2C255.3,200.6,255.2,200.6,255.1,200.6z M255.6,194.4v4.9l4.6-2.6v-4.9
			L255.6,194.4z"/>
		<path class="st7" d="M255.1,200.6c-0.1,0-0.2,0-0.2-0.1l-5.6-3.2c-0.2-0.1-0.3-0.3-0.3-0.4v-6.1c0-0.3,0.2-0.5,0.5-0.5
			c0.1,0,0.2,0,0.3,0.1l5.6,3.3c0.2,0.1,0.2,0.3,0.2,0.4v6C255.6,200.4,255.4,200.6,255.1,200.6L255.1,200.6z M250.1,196.7l4.6,2.6
			v-4.9l-4.6-2.7V196.7z"/>
		<path class="st7" d="M255.1,194.6c-0.1,0-0.2,0-0.3-0.1l-5.6-3.3c-0.2-0.1-0.3-0.4-0.2-0.7c0-0.1,0.1-0.1,0.2-0.2l5.5-3.2
			c0.2-0.1,0.3-0.1,0.5,0l5.6,3.2c0.2,0.1,0.3,0.4,0.2,0.7c0,0.1-0.1,0.1-0.2,0.2l-5.6,3.2C255.3,194.6,255.2,194.6,255.1,194.6z
			 M250.6,190.9l4.6,2.7l4.6-2.7l-4.6-2.7L250.6,190.9z"/>
		<path class="st7" d="M273.2,200.6c-0.3,0-0.5-0.2-0.5-0.5v-6c0-0.2,0.1-0.3,0.2-0.4l5.6-3.2c0.2-0.1,0.5-0.1,0.7,0.2
			c0,0.1,0.1,0.2,0.1,0.3v6.1c0,0.2-0.1,0.3-0.3,0.4l-5.6,3.2C273.3,200.6,273.2,200.6,273.2,200.6z M273.7,194.4v4.9l4.6-2.6v-4.9
			L273.7,194.4z"/>
		<path class="st7" d="M273.2,200.6c-0.1,0-0.2,0-0.2-0.1l-5.6-3.2c-0.2-0.1-0.3-0.3-0.3-0.4v-6.1c0-0.3,0.2-0.5,0.5-0.5
			c0.1,0,0.2,0,0.3,0.1l5.6,3.3c0.2,0.1,0.2,0.3,0.2,0.4v6C273.7,200.4,273.4,200.6,273.2,200.6L273.2,200.6z M268.1,196.7l4.6,2.6
			v-4.9l-4.6-2.7V196.7z"/>
		<path class="st7" d="M273.2,194.6c-0.1,0-0.2,0-0.3-0.1l-5.6-3.3c-0.2-0.1-0.3-0.4-0.2-0.7c0-0.1,0.1-0.1,0.2-0.2l5.5-3.2
			c0.2-0.1,0.3-0.1,0.5,0l5.6,3.2c0.2,0.1,0.3,0.4,0.2,0.7c0,0.1-0.1,0.1-0.2,0.2l-5.6,3.2C273.3,194.6,273.2,194.6,273.2,194.6z
			 M268.6,190.9l4.6,2.7l4.6-2.7l-4.6-2.7L268.6,190.9z"/>
		<path class="st7" d="M263.9,185.8c-0.3,0-0.5-0.2-0.5-0.5v-6c0-0.2,0.1-0.3,0.2-0.4l5.6-3.2c0.2-0.1,0.5-0.1,0.7,0.2
			c0,0.1,0.1,0.2,0.1,0.3v6.1c0,0.2-0.1,0.3-0.3,0.4l-5.6,3.2C264.1,185.8,264,185.8,263.9,185.8z M264.4,179.6v4.9l4.6-2.6v-4.9
			L264.4,179.6z"/>
		<path class="st7" d="M263.9,185.8c-0.1,0-0.2,0-0.2-0.1l-5.6-3.2c-0.2-0.1-0.3-0.3-0.3-0.4v-6.1c0-0.3,0.2-0.5,0.5-0.5
			c0.1,0,0.2,0,0.3,0.1l5.6,3.3c0.2,0.1,0.2,0.3,0.2,0.4v6C264.4,185.6,264.2,185.8,263.9,185.8z M258.9,181.9l4.6,2.6v-4.9
			l-4.6-2.7V181.9z"/>
		<path class="st7" d="M263.9,179.8c-0.1,0-0.2,0-0.3-0.1l-5.6-3.3c-0.2-0.1-0.3-0.4-0.2-0.7c0-0.1,0.1-0.1,0.2-0.2l5.5-3.2
			c0.2-0.1,0.3-0.1,0.5,0l5.6,3.2c0.2,0.1,0.3,0.4,0.2,0.7c0,0.1-0.1,0.1-0.2,0.2l-5.6,3.2C264.1,179.8,264,179.8,263.9,179.8z
			 M259.3,176l4.6,2.7l4.6-2.7l-4.6-2.7L259.3,176z"/>
		<path class="st7" d="M305.2,203.4c-0.3,0-0.5-0.2-0.5-0.5v-13.6c0-0.2,0.1-0.3,0.2-0.4l11.7-6.8c0.2-0.1,0.5-0.1,0.7,0.2
			c0,0.1,0.1,0.2,0.1,0.3v6.3c0,0.3-0.2,0.5-0.5,0.5s-0.5-0.2-0.5-0.5v-5.4l-10.7,6.2V202l5.9-3.4c0.2-0.1,0.5-0.1,0.7,0.2
			s0.1,0.5-0.2,0.7l-6.6,3.8C305.4,203.4,305.3,203.4,305.2,203.4z"/>
		<path class="st7" d="M305.2,203.4c-0.1,0-0.2,0-0.2-0.1l-7-4c-0.2-0.1-0.3-0.4-0.2-0.7s0.4-0.3,0.7-0.2c0,0,0,0,0,0l6.2,3.5v-12.5
			l-10.8-6.3v6c0,0.3-0.2,0.5-0.5,0.5s-0.5-0.2-0.5-0.5v-6.8c0-0.3,0.2-0.5,0.5-0.5c0.1,0,0.2,0,0.3,0.1l11.8,6.9
			c0.2,0.1,0.2,0.3,0.2,0.4v13.6c0,0.2-0.1,0.3-0.2,0.4C305.4,203.4,305.3,203.4,305.2,203.4z"/>
		<path class="st7" d="M305.1,189.8c-0.1,0-0.2,0-0.3-0.1l-11.8-6.9c-0.2-0.1-0.3-0.4-0.2-0.7c0-0.1,0.1-0.1,0.2-0.2l6-3.5
			c0.2-0.1,0.5-0.1,0.7,0.2c0.1,0.2,0.1,0.5-0.2,0.7c0,0,0,0,0,0l-5.2,3l10.8,6.3l10.8-6.3l-5.7-3.3c-0.2-0.1-0.3-0.4-0.2-0.7
			c0.1-0.2,0.4-0.3,0.7-0.2c0,0,0,0,0,0l6.4,3.7c0.2,0.1,0.3,0.4,0.2,0.7c0,0.1-0.1,0.1-0.2,0.2l-11.8,6.8
			C305.3,189.8,305.2,189.8,305.1,189.8z"/>
		<path class="st7" d="M296.2,200.6c-0.3,0-0.5-0.2-0.5-0.5v-6c0-0.2,0.1-0.3,0.2-0.4l5.6-3.2c0.2-0.1,0.5-0.1,0.7,0.2
			c0,0.1,0.1,0.2,0.1,0.3v6.1c0,0.2-0.1,0.3-0.3,0.4l-5.6,3.2C296.3,200.6,296.2,200.6,296.2,200.6z M296.7,194.4v4.9l4.6-2.6v-4.9
			L296.7,194.4z"/>
		<path class="st7" d="M296.2,200.6c-0.1,0-0.2,0-0.2-0.1l-5.6-3.2c-0.2-0.1-0.3-0.3-0.3-0.4v-6.1c0-0.3,0.2-0.5,0.5-0.5
			c0.1,0,0.2,0,0.3,0.1l5.6,3.3c0.2,0.1,0.2,0.3,0.2,0.4v6C296.7,200.4,296.4,200.6,296.2,200.6L296.2,200.6z M291.1,196.7l4.6,2.6
			v-4.9l-4.6-2.7V196.7z"/>
		<path class="st7" d="M296.2,194.6c-0.1,0-0.2,0-0.3-0.1l-5.6-3.3c-0.2-0.1-0.3-0.4-0.2-0.7c0-0.1,0.1-0.1,0.2-0.2l5.5-3.2
			c0.2-0.1,0.3-0.1,0.5,0l5.6,3.2c0.2,0.1,0.3,0.4,0.2,0.7c0,0.1-0.1,0.1-0.2,0.2l-5.6,3.2C296.3,194.6,296.2,194.6,296.2,194.6z
			 M291.6,190.9l4.6,2.7l4.6-2.7l-4.6-2.7L291.6,190.9z"/>
		<path class="st7" d="M314.2,200.6c-0.3,0-0.5-0.2-0.5-0.5v-6c0-0.2,0.1-0.3,0.2-0.4l5.6-3.2c0.2-0.1,0.5-0.1,0.7,0.2
			c0,0.1,0.1,0.2,0.1,0.3v6.1c0,0.2-0.1,0.3-0.3,0.4l-5.6,3.2C314.4,200.6,314.3,200.6,314.2,200.6z M314.7,194.4v4.9l4.6-2.6v-4.9
			L314.7,194.4z"/>
		<path class="st7" d="M314.2,200.6c-0.1,0-0.2,0-0.2-0.1l-5.6-3.2c-0.2-0.1-0.3-0.3-0.3-0.4v-6.1c0-0.3,0.2-0.5,0.5-0.5
			c0.1,0,0.2,0,0.3,0.1l5.6,3.3c0.2,0.1,0.2,0.3,0.2,0.4v6C314.7,200.4,314.5,200.6,314.2,200.6L314.2,200.6z M309.1,196.7l4.6,2.6
			v-4.9l-4.6-2.7V196.7z"/>
		<path class="st7" d="M314.2,194.6c-0.1,0-0.2,0-0.3-0.1l-5.6-3.3c-0.2-0.1-0.3-0.4-0.2-0.7c0-0.1,0.1-0.1,0.2-0.2l5.5-3.2
			c0.2-0.1,0.3-0.1,0.5,0l5.6,3.2c0.2,0.1,0.3,0.4,0.2,0.7c0,0.1-0.1,0.1-0.2,0.2l-5.6,3.2C314.4,194.6,314.3,194.6,314.2,194.6z
			 M309.6,190.9l4.6,2.7l4.6-2.7l-4.6-2.7L309.6,190.9z"/>
		<path class="st7" d="M304.9,185.8c-0.3,0-0.5-0.2-0.5-0.5v-6c0-0.2,0.1-0.3,0.2-0.4l5.6-3.2c0.2-0.1,0.5-0.1,0.7,0.2
			c0,0.1,0.1,0.2,0.1,0.3v6.1c0,0.2-0.1,0.3-0.3,0.4l-5.6,3.2C305.1,185.8,305,185.8,304.9,185.8z M305.4,179.6v4.9l4.6-2.6v-4.9
			L305.4,179.6z"/>
		<path class="st7" d="M304.9,185.8c-0.1,0-0.2,0-0.2-0.1l-5.6-3.2c-0.2-0.1-0.3-0.3-0.3-0.4v-6.1c0-0.3,0.2-0.5,0.5-0.5
			c0.1,0,0.2,0,0.3,0.1l5.6,3.3c0.2,0.1,0.2,0.3,0.2,0.4v6C305.4,185.6,305.2,185.8,304.9,185.8L304.9,185.8z M299.9,181.9l4.6,2.6
			v-4.9l-4.6-2.7V181.9z"/>
		<path class="st7" d="M304.9,179.8c-0.1,0-0.2,0-0.3-0.1l-5.6-3.3c-0.2-0.1-0.3-0.4-0.2-0.7c0-0.1,0.1-0.1,0.2-0.2l5.5-3.2
			c0.2-0.1,0.3-0.1,0.5,0l5.6,3.2c0.2,0.1,0.3,0.4,0.2,0.7c0,0.1-0.1,0.1-0.2,0.2l-5.6,3.2C305.1,179.8,305,179.8,304.9,179.8z
			 M300.4,176l4.6,2.7l4.6-2.7l-4.6-2.7L300.4,176z"/>
	</g>
</g>
<g>
	<path d="M532.7,293.2c2,0,3.3,1.5,3.3,3.4s-1.3,3.4-3.3,3.4c-2,0-3.3-1.5-3.3-3.4S530.7,293.2,532.7,293.2z M532.7,294
		c-1.5,0-2.4,1.1-2.4,2.7c0,1.5,0.9,2.7,2.4,2.7c1.5,0,2.4-1.2,2.4-2.7C535.2,295.1,534.2,294,532.7,294z"/>
</g>
</svg>
